<?xml version="1.0" encoding="UTF-8"?>
<svg width="81px" height="81px" viewBox="0 0 81 81" version="1.1" xmlns="http://www.w3.org/2000/svg" xmlns:xlink="http://www.w3.org/1999/xlink">
    <!-- Generator: Sketch 51.2 (57519) - http://www.bohemiancoding.com/sketch -->
    <title>computer</title>
    <desc>Created with Sketch.</desc>
    <defs></defs>
    <g id="Page-1" stroke="none" stroke-width="1" fill="none" fill-rule="evenodd">
        <g id="About" transform="translate(-1014.000000, -573.000000)" fill="#53B8D2" fill-rule="nonzero">
            <g id="Content" transform="translate(413.000000, 538.000000)">
                <g id="computer" transform="translate(601.000000, 35.000000)">
                    <path d="M49.9921875,54.7382813 C49.1189804,54.7382813 48.4101563,55.4471054 48.4101563,56.3203125 C48.4101563,57.1935196 49.1189804,57.9023438 49.9921875,57.9023438 C50.8653946,57.9023438 51.5742188,57.1935196 51.5742188,56.3203125 C51.5742188,55.4471054 50.8653946,54.7382813 49.9921875,54.7382813 Z" id="Shape"></path>
                    <path d="M73.0898438,0 L7.91015625,0 C3.54844673,0 0,3.54844673 0,7.91015625 L0,56.3203125 C0,60.682022 3.54844673,64.2304688 7.91015625,64.2304688 L32.5898438,64.2304688 L32.5898438,71.5078125 L31.0078125,71.5078125 C28.8955537,71.5078125 26.9099807,72.3309631 25.4150849,73.8252412 C23.9208069,75.320137 23.0976562,77.3057099 23.0976562,79.4179688 C23.0976562,80.2917939 23.8058623,81 24.6796875,81 L56.3203125,81 C57.1941377,81 57.9023438,80.2917939 57.9023438,79.4179688 C57.9023438,75.0562592 54.353897,71.5078125 49.9921875,71.5078125 L48.4101562,71.5078125 L48.4101562,64.2304688 L73.0898438,64.2304688 C77.4515533,64.2304688 81,60.682022 81,56.3203125 L81,7.91015625 C81,3.54844673 77.4515533,0 73.0898438,0 Z M7.91015625,3.1640625 L73.0898438,3.1640625 C75.7069931,3.1640625 77.8359375,5.29300686 77.8359375,7.91015625 L77.8359375,48.4101563 L70.5585938,48.4101563 L70.5585938,12.0234375 C70.5585938,11.1496123 69.8503877,10.4414062 68.9765625,10.4414062 L56.3203125,10.4414062 C55.4464873,10.4414062 54.7382813,11.1496123 54.7382813,12.0234375 L54.7382813,48.4101563 L46.8194732,48.4101563 C46.8027878,46.7737427 46.760147,45.1608125 46.6921692,43.5960845 C46.4153137,37.1530151 45.7843552,32.8370361 45.4562073,30.9385986 C48.7203828,28.5352707 49.6115112,24.080864 47.6160508,20.6201706 L42.1327056,11.1230393 C41.8496704,10.6335984 41.3274765,10.3320237 40.7626419,10.3320237 C40.1971894,10.3320237 39.6749954,10.6335984 39.3925781,11.1230393 L33.9067612,20.6207886 C32.0256272,23.883728 32.6924287,28.1100998 35.6476135,30.604271 C35.305252,32.4971465 34.6143494,36.9676208 34.3140107,43.5929947 C34.2429428,45.174408 34.1978301,46.7885742 34.1805268,48.4101563 L26.2617187,48.4101563 L26.2617187,24.6796875 C26.2617187,24.4287872 26.2023926,24.2001343 26.1053696,23.9968186 C26.1010437,23.9887847 26.0985718,23.9801331 26.0948638,23.9720993 L19.7667388,11.3158493 C19.4985352,10.7800598 18.9510039,10.4414062 18.3515625,10.4414062 C17.7521211,10.4414062 17.2045898,10.7800598 16.9363862,11.3158493 L10.6082612,23.9720993 C10.6045532,23.9801331 10.6020813,23.9887847 10.5983735,23.9968186 C10.4994965,24.2019883 10.4414062,24.4343491 10.4414062,24.6796875 L10.4414062,48.4101563 L3.1640625,48.4101563 L3.1640625,7.91015625 C3.1640625,5.29300686 5.29300686,3.1640625 7.91015625,3.1640625 Z M57.9023438,48.4101563 L57.9023438,13.6054688 L67.3945313,13.6054688 L67.3945313,16.7695312 L65.8125,16.7695312 C64.9386748,16.7695312 64.2304688,17.4777373 64.2304688,18.3515625 C64.2304688,19.2253877 64.9386748,19.9335938 65.8125,19.9335938 L67.3945313,19.9335938 L67.3945313,24.6796875 L65.8125,24.6796875 C64.9386748,24.6796875 64.2304688,25.3878936 64.2304688,26.2617188 C64.2304688,27.1355439 64.9386748,27.84375 65.8125,27.84375 L67.3945313,27.84375 L67.3945313,32.5898438 L65.8125,32.5898438 C64.9386748,32.5898438 64.2304688,33.2980498 64.2304688,34.171875 C64.2304688,35.0457002 64.9386748,35.7539062 65.8125,35.7539062 L67.3945313,35.7539062 L67.3945313,42.0820313 L65.8125,42.0820313 C64.9386748,42.0820313 64.2304688,42.7902373 64.2304688,43.6640625 C64.2304688,44.5378877 64.9386748,45.2460938 65.8125,45.2460938 L67.3945313,45.2460938 L67.3945313,48.4101563 L57.9023438,48.4101563 Z M40.7626419,32.4804612 C41.3373642,32.4804612 41.9096145,32.4143372 42.4695053,32.290741 C42.7630463,34.1724929 43.194397,37.5021743 43.4496231,42.0820313 L37.5608826,42.0820313 C37.8284683,37.5052642 38.2802124,34.1236724 38.5922927,32.1782685 C39.2930832,32.3778762 40.0229187,32.4804612 40.7626419,32.4804612 Z M40.7626419,29.3163987 C37.1468354,29.3163987 34.8151931,25.3810959 36.6475068,22.2022019 L40.7626419,15.0781174 L44.8753052,22.2015839 C46.7008208,25.3675003 44.4013137,29.3163987 40.7626419,29.3163987 Z M37.415657,45.2460938 L43.5886689,45.2460938 C43.6220398,46.2855376 43.6449051,47.3429031 43.6560288,48.4101563 L37.3445893,48.4101563 C37.3563308,47.3497009 37.3804321,46.2923355 37.415657,45.2460938 Z M19.9335938,48.4101563 L19.9335938,26.2617188 L23.0976563,26.2617188 L23.0976563,48.4101563 L19.9335938,48.4101563 Z M13.6054688,48.4101563 L13.6054688,26.2617188 L16.7695313,26.2617188 L16.7695313,48.4101563 L13.6054688,48.4101563 Z M14.5831147,23.0976563 L18.3515625,15.5607605 L22.1200103,23.0976563 L14.5831147,23.0976563 Z M54.4669876,77.8359375 L26.5311584,77.8359375 C26.7635193,77.1765518 27.1429595,76.5721665 27.6521758,76.0623321 C28.5494843,75.1656418 29.7409516,74.671875 31.0078125,74.671875 L49.9921875,74.671875 C52.0550079,74.671875 53.8143997,75.9943542 54.4669876,77.8359375 Z M45.2460938,71.5078125 L35.7539062,71.5078125 L35.7539062,64.2304688 L45.2460938,64.2304688 L45.2460938,71.5078125 Z M73.0898438,61.0664063 L7.91015625,61.0664063 C5.29300686,61.0664063 3.1640625,58.9374619 3.1640625,56.3203125 L3.1640625,51.5742188 L77.8359375,51.5742188 L77.8359375,56.3203125 C77.8359375,58.9374619 75.7069931,61.0664063 73.0898438,61.0664063 Z" id="Shape"></path>
                    <path d="M43.6640625,54.7382813 L34.171875,54.7382813 C33.2980498,54.7382813 32.5898438,55.4464873 32.5898438,56.3203125 C32.5898438,57.1941377 33.2980498,57.9023438 34.171875,57.9023438 L43.6640625,57.9023438 C44.5378877,57.9023438 45.2460938,57.1941377 45.2460938,56.3203125 C45.2460938,55.4464873 44.5378877,54.7382813 43.6640625,54.7382813 Z" id="Shape"></path>
                </g>
            </g>
        </g>
    </g>
</svg>