<?xml version="1.0" encoding="UTF-8"?>
<svg width="104px" height="104px" viewBox="0 0 104 104" version="1.1" xmlns="http://www.w3.org/2000/svg" xmlns:xlink="http://www.w3.org/1999/xlink">
    <!-- Generator: Sketch 51.2 (57519) - http://www.bohemiancoding.com/sketch -->
    <title>Face</title>
    <desc>Created with Sketch.</desc>
    <defs>
        <circle id="path-1" cx="44" cy="44" r="44"></circle>
        <filter x="-11.4%" y="-11.4%" width="125.0%" height="125.0%" filterUnits="objectBoundingBox" id="filter-2">
            <feMorphology radius="3.5" operator="dilate" in="SourceAlpha" result="shadowSpreadOuter1"></feMorphology>
            <feOffset dx="1" dy="1" in="shadowSpreadOuter1" result="shadowOffsetOuter1"></feOffset>
            <feGaussianBlur stdDeviation="2" in="shadowOffsetOuter1" result="shadowBlurOuter1"></feGaussianBlur>
            <feComposite in="shadowBlurOuter1" in2="SourceAlpha" operator="out" result="shadowBlurOuter1"></feComposite>
            <feColorMatrix values="0 0 0 0 0   0 0 0 0 0   0 0 0 0 0  0 0 0 0.283118207 0" type="matrix" in="shadowBlurOuter1"></feColorMatrix>
        </filter>
        <path d="M44.1860465,65.1251289 C57.5436312,65.1251289 68.372093,51.9809292 68.372093,38.6851852 C68.372093,25.3894412 57.5436312,14.6111111 44.1860465,14.6111111 C30.8284619,14.6111111 20,25.3894412 20,38.6851852 C20,51.9809292 30.8284619,65.1251289 44.1860465,65.1251289 Z" id="path-3"></path>
        <filter x="-5.2%" y="-3.0%" width="110.3%" height="111.9%" filterUnits="objectBoundingBox" id="filter-4">
            <feOffset dx="0" dy="2" in="SourceAlpha" result="shadowOffsetOuter1"></feOffset>
            <feGaussianBlur stdDeviation="0.5" in="shadowOffsetOuter1" result="shadowBlurOuter1"></feGaussianBlur>
            <feColorMatrix values="0 0 0 0 0   0 0 0 0 0   0 0 0 0 0  0 0 0 0.136237545 0" type="matrix" in="shadowBlurOuter1"></feColorMatrix>
        </filter>
    </defs>
    <g id="Page-1" stroke="none" stroke-width="1" fill="none" fill-rule="evenodd">
        <g id="HomePage" transform="translate(-43.000000, -35.000000)">
            <g id="Face" transform="translate(50.000000, 42.000000)">
                <g id="Oval">
                    <use fill="black" fill-opacity="1" filter="url(#filter-2)" xlink:href="#path-1"></use>
                    <use stroke="#FFFFFF" stroke-width="6" fill="#54B9D3" fill-rule="evenodd" xlink:href="#path-1"></use>
                </g>
                <path d="M20.1486353,32.6666667 L67.172093,32.6666667 C67.8348347,32.6666667 68.372093,33.203925 68.372093,33.8666667 L68.372093,76 L20,76 L20.1486353,32.6666667 Z" id="Rectangle-4" fill="#71604D"></path>
                <ellipse id="FACE-Copy-6" fill="#71604D" cx="44.1860465" cy="35.0740741" rx="24.1860465" ry="24.0740741"></ellipse>
                <g id="FACE">
                    <use fill="black" fill-opacity="1" filter="url(#filter-4)" xlink:href="#path-3"></use>
                    <use fill="#FFDAB4" fill-rule="evenodd" xlink:href="#path-3"></use>
                </g>
                <polygon id="Rectangle-4-Copy" fill="#71604D" points="20 35.0740741 21.2093023 36.1524367 21.2093023 65.1666667 20 65.1666667"></polygon>
                <path d="M21.2093023,35.0740741 L22.4186047,36.1524367 L22.4186047,65.1666667 L21.2093023,65.1666667 C21.0640828,54.7145558 20.991473,46.8754727 20.991473,41.6494173 C20.991473,36.4233619 21.0640828,34.2315808 21.2093023,35.0740741 Z" id="Rectangle-4-Copy-3" fill="#71604D"></path>
                <path d="M67.8132861,32.6946716 L67.4065622,59.5040712 L67.8132861,32.6946716 Z" id="Rectangle-4-Copy-2" fill="#71604D" transform="translate(68.011213, 46.099371) scale(-1, 1) translate(-68.011213, -46.099371) "></path>
                <path d="M54.0164325,41.8730996 C56.0200702,41.8730996 57.6443394,44.3802516 57.6443394,43.3633371 C57.6443394,42.3464227 56.0200702,40.25718 54.0164325,40.25718 C52.0127948,40.25718 50.3885255,42.3464227 50.3885255,43.3633371 C50.3885255,44.3802516 52.0127948,41.8730996 54.0164325,41.8730996 Z" id="FACE-Copy-2" fill="#71604D" transform="translate(54.016432, 41.931626) rotate(6.000000) translate(-54.016432, -41.931626) "></path>
                <path d="M41.7674419,48.3148148 L46.483699,48.3148148 C46.260749,49.4080638 45.2897,50.2309128 44.1255704,50.2309128 C42.9614409,50.2309128 41.9903919,49.4080638 41.7674419,48.3148148 Z" id="Combined-Shape" fill="#D2B493"></path>
                <path d="M38.1395349,54.3333333 L50.2325581,54.3333333 C49.8963056,57.3610381 47.3174681,59.7159789 44.1860465,59.7159789 C41.0546249,59.7159789 38.4757874,57.3610381 38.1395349,54.3333333 Z" id="Combined-Shape-Copy" stroke="#5D4F3F" stroke-width="0.5" fill="#71604D"></path>
                <path d="M39.3488372,57.2345245 C39.9988602,56.9284428 40.8762611,56.7407407 41.8417503,56.7407407 C43.8453879,56.7407407 45.4696572,57.5491155 45.4696572,58.5462963 C45.4696572,58.9875028 45.1516815,59.3917475 44.6235598,59.7053654 C44.503396,59.712408 44.3822944,59.7159789 44.2603549,59.7159789 C42.2434017,59.7159789 40.4556973,58.7389925 39.3488372,57.2345245 Z" id="Combined-Shape" fill="#FF4F6D"></path>
                <path d="M43.8228416,59.7053654 C43.2947199,59.3917475 42.9767442,58.9875028 42.9767442,58.5462963 C42.9767442,57.5491155 44.6010135,56.7407407 46.6046512,56.7407407 C47.5701403,56.7407407 48.4475412,56.9284428 49.0975642,57.2345245 C47.9907041,58.7389925 46.2029997,59.7159789 44.1860465,59.7159789 C44.064107,59.7159789 43.9430054,59.712408 43.8228416,59.7053654 Z" id="Combined-Shape" fill="#FF4F6D"></path>
                <path d="M34.6675952,41.8730996 C36.6712329,41.8730996 38.2955022,44.3802516 38.2955022,43.3633371 C38.2955022,42.3464227 36.6712329,40.25718 34.6675952,40.25718 C32.6639575,40.25718 31.0396883,42.3464227 31.0396883,43.3633371 C31.0396883,44.3802516 32.6639575,41.8730996 34.6675952,41.8730996 Z" id="FACE-Copy-5" fill="#71604D" transform="translate(34.667595, 41.931626) scale(-1, 1) rotate(6.000000) translate(-34.667595, -41.931626) "></path>
                <path d="M54.2374378,35.2363029 C56.5135818,35.2363029 59.1241102,37.0309828 59.1241102,36.465317 C59.1241102,35.8996512 56.5135818,33.8703704 54.2374378,33.8703704 C51.9612939,33.8703704 49.0232558,34.9602101 49.0232558,35.5258759 C49.0232558,36.0915417 51.9612939,35.2363029 54.2374378,35.2363029 Z" id="FACE-Copy-3" fill="#71604D"></path>
                <path d="M34.8886006,35.2363029 C37.1647446,35.2363029 39.775273,37.0309828 39.775273,36.465317 C39.775273,35.8996512 37.1647446,33.8703704 34.8886006,33.8703704 C32.6124567,33.8703704 29.6744186,34.9602101 29.6744186,35.5258759 C29.6744186,36.0915417 32.6124567,35.2363029 34.8886006,35.2363029 Z" id="FACE-Copy-4" fill="#71604D" transform="translate(34.724846, 35.222980) scale(-1, 1) translate(-34.724846, -35.222980) "></path>
                <path d="M39.3488372,54.3333333 L49.0232558,54.3333333 L48.2244072,55.1671837 C47.998066,55.4034421 47.6850699,55.537037 47.3578874,55.537037 L41.0846944,55.537037 C40.774734,55.537037 40.4767966,55.4170999 40.2532868,55.202347 L39.3488372,54.3333333 Z" id="Rectangle-3" fill="#FFFFFF"></path>
                <path d="M56.0832696,27.9982958 C64.2449218,27.9982958 68.0288583,26.3349289 70.2529845,25.5220127 C72.4771106,24.7090965 62.1374379,17.3997187 53.9757857,17.3997187 C45.8141335,17.3997187 41.3052911,23.2605732 41.3052911,24.9461995 C41.3052911,26.6318257 47.9216174,27.9982958 56.0832696,27.9982958 Z" id="Oval-3-Copy" fill="#71604D" transform="translate(55.932343, 22.699007) rotate(29.000000) translate(-55.932343, -22.699007) "></path>
                <path d="M20.1361577,37.7519628 C20.0461557,36.9076776 20,36.0503632 20,35.1823184 C20,29.7926974 21.7793359,24.8167385 24.7851922,20.804698 C25.1163696,20.6386757 25.4501834,20.4735935 25.7865135,20.3095543 C29.5272377,18.4850812 32.8369524,16.1265376 36.1872549,14.9932201 C44.6648932,12.1254623 51.5597414,12.4627163 52.779176,14.9629278 C54.4805226,18.4512052 45.1539237,26.5005865 31.9476344,32.9417242 C27.804823,34.9623083 23.7723524,36.5846002 20.1361577,37.7519628 Z" id="Combined-Shape" fill="#71604D"></path>
                <path d="M65.9534884,30.2956381 C66.489233,30.1838544 66.8923338,30.3296847 67.1627907,30.7331291 C67.4332476,31.1365736 67.8363484,32.5755661 68.372093,35.0501065 L68.372093,50.7222222 L65.9534884,50.7222222 L65.9534884,30.2956381 Z" id="Rectangle-5" fill="#71604D"></path>
            </g>
        </g>
    </g>
</svg>