<?xml version="1.0" encoding="UTF-8"?>
<svg width="130px" height="128px" viewBox="0 0 130 128" version="1.1" xmlns="http://www.w3.org/2000/svg" xmlns:xlink="http://www.w3.org/1999/xlink">
    <!-- Generator: Sketch 51.2 (57519) - http://www.bohemiancoding.com/sketch -->
    <title>Silvitko Paddle Right</title>
    <desc>Created with Sketch.</desc>
    <defs>
        <filter x="-4.4%" y="-2.8%" width="108.9%" height="109.8%" filterUnits="objectBoundingBox" id="filter-1">
            <feOffset dx="0" dy="2" in="SourceAlpha" result="shadowOffsetOuter1"></feOffset>
            <feGaussianBlur stdDeviation="1.5" in="shadowOffsetOuter1" result="shadowBlurOuter1"></feGaussianBlur>
            <feColorMatrix values="0 0 0 0 0   0 0 0 0 0   0 0 0 0 0  0 0 0 0.5 0" type="matrix" in="shadowBlurOuter1" result="shadowMatrixOuter1"></feColorMatrix>
            <feMerge>
                <feMergeNode in="shadowMatrixOuter1"></feMergeNode>
                <feMergeNode in="SourceGraphic"></feMergeNode>
            </feMerge>
        </filter>
    </defs>
    <g id="Page-1" stroke="none" stroke-width="1" fill="none" fill-rule="evenodd">
        <g id="Spare-animation-parts" transform="translate(-536.000000, -159.000000)">
            <g id="Silvitko-Paddle-Right" filter="url(#filter-1)" transform="translate(539.000000, 160.000000)">
                <g id="oar" transform="translate(56.098772, 63.307230) rotate(-25.000000) translate(-56.098772, -63.307230) translate(50.098772, 0.609178)" fill="#A98A57">
                    <rect id="Rectangle-30" x="4.8" y="3.19480519" width="2.4" height="105.428571"></rect>
                    <polygon id="Triangle-2" transform="translate(6.000000, 3.194805) rotate(-180.000000) translate(-6.000000, -3.194805) " points="6 0 10.4 6.38961039 1.6 6.38961039"></polygon>
                    <polygon id="Triangle-2-Copy" transform="translate(6.000000, 107.425325) scale(1, -1) rotate(-180.000000) translate(-6.000000, -107.425325) " points="6 103.032468 12 111.818182 0 111.818182"></polygon>
                    <path d="M0,111.818182 L12,111.818182 L12,122.996104 C12,124.321587 10.9254834,125.396104 9.6,125.396104 L2.4,125.396104 C1.0745166,125.396104 1.623249e-16,124.321587 0,122.996104 L0,111.818182 Z" id="Rectangle-31"></path>
                </g>
                <g id="Kayak" transform="translate(0.000000, 60.701299)">
                    <path d="M62,27.9093682 C79.3418793,27.9093682 96.7774237,28.5100237 107.943291,25.3309917 C118.612096,22.2934782 122.4,13.4527616 122.4,10.7864446 C122.4,5.3295861 95.2377697,4.79220779 61.3260059,4.79220779 C27.4142421,4.79220779 1.6,5.3295861 1.6,10.7864446 C1.6,13.8067532 3.70895299,22.1068642 16.9799519,25.3309917 C27.6859607,27.9319667 46.8580087,27.9093682 62,27.9093682 Z" id="Oval-6-Copy-2" fill="#AA2D2D"></path>
                    <path d="M62,24.7114473 C79.8012669,24.7114473 97.69868,25.3535273 109.160332,21.9552517 C120.111754,18.7082545 124,9.25783343 124,6.40763243 C124,0.574438882 96.1182404,0 61.3081517,0 C26.4980631,0 0,0.574438882 0,6.40763243 C0,9.63623818 2.1648193,18.5087706 15.7873678,21.9552517 C26.7769795,24.7356044 46.4568963,24.7114473 62,24.7114473 Z" id="Oval-6-Copy-3" fill="#D23030"></path>
                    <ellipse id="Oval-6-Copy" fill="#6A6A6A" cx="62.4" cy="10.7824675" rx="27.2" ry="8.38636364"></ellipse>
                </g>
                <rect id="Rectangle-28-Copy-4" fill="#FFDAB4" transform="translate(59.349288, 44.566490) rotate(47.000000) translate(-59.349288, -44.566490) " x="56.8370013" y="35.7807756" width="5.02457341" height="17.5714286"></rect>
                <path d="M62.6110209,35.8861793 L64.0527507,34.9751881 C65.3419342,34.1605868 66.9821378,34.1498903 68.2818359,34.9476085 L69.8110209,35.8861793 L69.8110209,42.4302048 L62.6110209,42.4302048 L62.6110209,35.8861793 Z" id="Rectangle-28-Copy-3" fill="#FFFFFF" transform="translate(66.211021, 38.393940) rotate(40.000000) translate(-66.211021, -38.393940) "></path>
                <rect id="Rectangle-28" fill="#FFDAB4" x="66.4" y="28.7532468" width="6.4" height="7.98701299"></rect>
                <path d="M72.3010532,36.6140374 L76.4,41.6450236 L62,41.6450236 L66.0989468,36.6140374 C67.4943234,34.901373 70.0138884,34.6441604 71.7265528,36.039537 C71.9370554,36.211042 72.1295483,36.4035348 72.3010532,36.6140374 Z" id="Triangle" fill="#FFFFFF"></path>
                <ellipse id="Oval-6" fill="#FFDAB4" cx="67.2" cy="19.1688312" rx="14.4" ry="14.3766234"></ellipse>
                <path d="M58.1122867,30.3506494 C56.9937067,29.4309908 56.0114744,28.3547125 55.2,27.1558442 L61.0245734,27.1558442 C60.213099,28.3547125 59.2308667,29.4309908 58.1122867,30.3506494 Z" id="Combined-Shape" fill="#606060"></path>
                <path d="M56.6129066,28.9673656 C56.8226103,28.9235193 57.0295867,28.8525151 57.2590409,28.8658307 C57.7094906,28.891971 58.1911613,29.1124843 58.4459293,29.3129557 C58.608402,29.4408019 58.6835264,29.6393743 58.7172705,29.8548074 C58.5328863,30.029756 58.3428554,30.2002568 58.1475242,30.3661077 C58.07125,30.3030361 57.995275,30.2394441 57.9195897,30.1753558 C57.4678676,29.7928498 57.0307311,29.3899204 56.6129066,28.9673656 Z" id="Combined-Shape" fill="#FF4F6D"></path>
                <path d="M55.2,27.1558442 L60.8,27.1558442 C60.7091075,27.2951826 60.6284799,27.4160919 60.5581172,27.5185722 C60.4877544,27.6210525 60.3818506,27.7663769 60.2404056,27.9545455 L55.7654394,27.9545455 L55.2,27.1558442 Z" id="Rectangle-27" fill="#F1F1F1"></path>
                <path d="" id="Combined-Shape-Copy-7" fill="#E3E3E3"></path>
                <path d="M58.5122867,20.5689057 C59.8377701,20.5689057 60.9122867,22.3627512 60.9122867,21.6351578 C60.9122867,20.9075643 59.8377701,19.4127292 58.5122867,19.4127292 C57.1868033,19.4127292 56.1122867,20.9075643 56.1122867,21.6351578 C56.1122867,22.3627512 57.1868033,20.5689057 58.5122867,20.5689057 Z" id="FACE-Copy-2" fill="#71604D" transform="translate(58.512287, 20.610781) rotate(6.000000) translate(-58.512287, -20.610781) "></path>
                <path d="M58.5037567,17.5792956 C59.9459437,17.5792956 61.6,18.6390346 61.6,18.3050151 C61.6,17.9709955 59.9459437,16.7727273 58.5037567,16.7727273 C57.0615696,16.7727273 55.2,17.4162658 55.2,17.7502853 C55.2,18.0843048 57.0615696,17.5792956 58.5037567,17.5792956 Z" id="FACE-Copy-3" fill="#71604D"></path>
                <path d="M51.2,15.974026 C51.2,7.15181504 58.363444,0 67.2,0 C76.036556,0 83.2,7.15181504 83.2,15.974026 L51.2,15.974026 Z" id="Combined-Shape" fill="#71604D"></path>
                <rect id="Rectangle-25" fill="#71604D" x="72" y="15" width="11.2" height="26.5324675"></rect>
                <rect id="Rectangle-29" fill="#FFFFFF" x="62" y="41.5324675" width="14.4" height="21.5649351"></rect>
                <rect id="Rectangle-28-Copy-2" fill="#FFDAB4" transform="translate(54.212016, 34.649133) rotate(115.000000) translate(-54.212016, -34.649133) " x="51.6997289" y="21.8699118" width="5.02457341" height="25.5584416"></rect>
                <path d="M62.2302877,37.3929816 L63.6720174,36.4819903 C64.9612009,35.667389 66.6014046,35.6566926 67.9011026,36.4544108 L69.4302877,37.3929816 L69.4302877,43.9370071 L62.2302877,43.9370071 L62.2302877,37.3929816 Z" id="Rectangle-28-Copy" fill="#FFFFFF" transform="translate(65.830288, 39.900743) rotate(110.000000) translate(-65.830288, -39.900743) "></path>
                <ellipse id="Oval-8" fill="#FFDAB4" cx="50.4" cy="52.7142857" rx="4" ry="3.99350649"></ellipse>
                <path d="M61.6,63.0974026 L76.8,63.0974026 L76.8,70.2753247 C76.8,73.8099471 73.9346224,76.6753247 70.4,76.6753247 L61.6,76.6753247 L61.6,63.0974026 Z" id="Rectangle-32" fill="#B9CCD4"></path>
                <path d="M50.7954545,71.0844156 L62.4,71.0844156 L62.4,76.6753247 L50.7954545,76.6753247 C49.2515676,76.6753247 48,75.423757 48,73.8798701 L48,73.8798701 C48,72.3359832 49.2515676,71.0844156 50.7954545,71.0844156 Z" id="Rectangle-33-Copy" fill="#FFDAB4"></path>
                <path d="M50.7954545,66.2922078 L62.4,66.2922078 L62.4,71.8831169 L50.7954545,71.8831169 C49.2515676,71.8831169 48,70.6315493 48,69.0876623 L48,69.0876623 C48,67.5437754 49.2515676,66.2922078 50.7954545,66.2922078 Z" id="Rectangle-33-Copy-2" fill="#FFDAB4"></path>
                <rect id="Rectangle-33" fill="#B9CCD4" x="55.2" y="66.2922078" width="7.2" height="10.3831169"></rect>
                <ellipse id="Oval-8-Copy" fill="#FFDAB4" cx="40.8" cy="27.9545455" rx="4" ry="3.99350649"></ellipse>
            </g>
        </g>
    </g>
</svg>