<?xml version="1.0" encoding="UTF-8"?>
<svg width="114px" height="114px" viewBox="0 0 114 114" version="1.1" xmlns="http://www.w3.org/2000/svg" xmlns:xlink="http://www.w3.org/1999/xlink">
    <!-- Generator: Sketch 51.2 (57519) - http://www.bohemiancoding.com/sketch -->
    <title>Phone</title>
    <desc>Created with Sketch.</desc>
    <defs>
        <circle id="path-1" cx="50" cy="50" r="50"></circle>
        <filter x="-7.2%" y="-7.2%" width="118.5%" height="118.5%" filterUnits="objectBoundingBox" id="filter-2">
            <feMorphology radius="3.75" operator="dilate" in="SourceAlpha" result="shadowSpreadOuter1"></feMorphology>
            <feOffset dx="2" dy="2" in="shadowSpreadOuter1" result="shadowOffsetOuter1"></feOffset>
            <feGaussianBlur stdDeviation="1.5" in="shadowOffsetOuter1" result="shadowBlurOuter1"></feGaussianBlur>
            <feComposite in="shadowBlurOuter1" in2="SourceAlpha" operator="out" result="shadowBlurOuter1"></feComposite>
            <feColorMatrix values="0 0 0 0 0   0 0 0 0 0   0 0 0 0 0  0 0 0 0.5 0" type="matrix" in="shadowBlurOuter1"></feColorMatrix>
        </filter>
    </defs>
    <g id="Page-1" stroke="none" stroke-width="1" fill="none" fill-rule="evenodd">
        <g id="Contact" transform="translate(-380.000000, -782.000000)">
            <g id="Email/Phone" transform="translate(385.000000, 698.000000)">
                <g id="Phone" transform="translate(0.000000, 89.000000)">
                    <g id="Oval-13">
                        <use fill="black" fill-opacity="1" filter="url(#filter-2)" xlink:href="#path-1"></use>
                        <use stroke="#FFFFFF" stroke-width="7.5" fill="#54B9D3" fill-rule="evenodd" xlink:href="#path-1"></use>
                    </g>
                    <g id="iconfinder_phone_1608790" transform="translate(25.563910, 25.563910)" fill="#FFFFFF" fill-rule="nonzero">
                        <path d="M50.3759398,39.7855434 C50.3759398,40.429554 50.2566786,41.2703456 50.0181562,42.3079182 C49.7796337,43.3454909 49.5291852,44.1624302 49.2668105,44.7587363 C48.7659134,45.9513485 47.3109265,47.2155175 44.9018498,48.5512432 C42.6597388,49.7677076 40.4414801,50.3759398 38.2470737,50.3759398 C37.6030631,50.3759398 36.9769416,50.3341984 36.3687094,50.2507156 C35.7604772,50.1672327 35.0747252,50.0181562 34.3114533,49.803486 C33.5481815,49.5888158 32.9816907,49.415887 32.6119809,49.2846997 C32.2422712,49.1535123 31.5803714,48.9090268 30.6262816,48.5512432 C29.6721918,48.1934595 29.0878119,47.9787893 28.8731417,47.9072326 C26.5356217,47.072404 24.4485504,46.0825359 22.6119275,44.9376282 C19.5588403,43.0533009 16.404381,40.4832215 13.1485496,37.2273902 C9.8927183,33.9715589 7.32263898,30.8170996 5.43831169,27.7640123 C4.29340396,25.9273895 3.30353583,23.8403181 2.46870728,21.5027982 C2.39715055,21.288128 2.18248035,20.703748 1.82469668,19.7496582 C1.46691302,18.7955685 1.22242752,18.1336687 1.09124017,17.7639589 C0.960052831,17.3942491 0.78712406,16.8277583 0.572453862,16.0644865 C0.357783664,15.3012147 0.208707137,14.6154627 0.125224282,14.0072304 C0.0417414274,13.3989982 0,12.7728768 0,12.1288662 C0,9.93445973 0.608232228,7.71620101 1.82469668,5.47409005 C3.16042236,3.06501339 4.42459131,1.61002649 5.61720352,1.10912936 C6.21350963,0.846754671 7.03044899,0.596306106 8.06802162,0.357783664 C9.10559424,0.119261221 9.94638585,0 10.5903964,0 C10.9243279,0 11.1747764,0.0357783664 11.3417421,0.107335099 C11.7710825,0.250448565 12.403167,1.15683385 13.2379956,2.82649094 C13.5003702,3.27968358 13.8581539,3.92369418 14.3113465,4.75852273 C14.7645392,5.59335128 15.1819535,6.35066003 15.5635894,7.03044899 C15.9452253,7.71023795 16.3149351,8.34828549 16.6727187,8.94459159 C16.7442755,9.04000057 16.9529826,9.33815362 17.2988401,9.83905075 C17.6446977,10.3399479 17.9011093,10.7633252 18.068075,11.1091828 C18.2350407,11.4550403 18.3185236,11.7949348 18.3185236,12.1288662 C18.3185236,12.6059111 17.9786291,13.2022172 17.2988401,13.9177845 C16.6190512,14.6333518 15.8796316,15.2892886 15.0805814,15.8855947 C14.2815312,16.4819008 13.5421117,17.1139852 12.8623227,17.7818481 C12.1825337,18.4497109 11.8426393,18.9983125 11.8426393,19.4276529 C11.8426393,19.6423231 11.9022699,19.9106609 12.0215311,20.2326662 C12.1407923,20.5546715 12.2421644,20.799157 12.3256472,20.9661227 C12.4091301,21.1330884 12.5760958,21.4193153 12.8265443,21.8248035 C13.0769929,22.2302916 13.2141433,22.456888 13.2379956,22.5045924 C15.0507661,25.7723499 17.1259114,28.5749886 19.4634313,30.9125085 C21.8009512,33.2500285 24.6035899,35.3251737 27.8713474,37.1379443 C27.9190519,37.1617965 28.1456482,37.2989469 28.5511364,37.5493955 C28.9566245,37.7998441 29.2428514,37.9668098 29.4098172,38.0502926 C29.5767829,38.1337755 29.8212684,38.2351475 30.1432737,38.3544087 C30.465279,38.47367 30.7336167,38.5333006 30.9482869,38.5333006 C31.3776273,38.5333006 31.9262289,38.1934061 32.5940918,37.5136171 C33.2619546,36.8338282 33.8940391,36.0944086 34.4903452,35.2953584 C35.0866513,34.4963082 35.742588,33.7568887 36.4581553,33.0770997 C37.1737227,32.3973107 37.7700288,32.0574163 38.2470737,32.0574163 C38.5810051,32.0574163 38.9208996,32.1408991 39.2667571,32.3078648 C39.6126146,32.4748305 40.035992,32.7312422 40.5368891,33.0770997 C41.0377862,33.4229573 41.3359393,33.6316644 41.4313483,33.7032211 C42.0276544,34.0610048 42.6657019,34.4307146 43.3454909,34.8123505 C44.0252798,35.1939864 44.7825886,35.6114007 45.6174171,36.0645933 C46.4522457,36.5177859 47.0962563,36.8755696 47.5494489,37.1379443 C49.219106,37.9727728 50.1254913,38.6048573 50.2686048,39.0341977 C50.3401615,39.2011634 50.3759398,39.451612 50.3759398,39.7855434 Z" id="Shape"></path>
                    </g>
                </g>
            </g>
        </g>
    </g>
</svg>