<?xml version="1.0" encoding="UTF-8"?>
<svg width="87px" height="77px" viewBox="0 0 87 77" version="1.1" xmlns="http://www.w3.org/2000/svg" xmlns:xlink="http://www.w3.org/1999/xlink">
    <!-- Generator: Sketch 51.2 (57519) - http://www.bohemiancoding.com/sketch -->
    <title>web-programming</title>
    <desc>Created with Sketch.</desc>
    <defs></defs>
    <g id="Page-1" stroke="none" stroke-width="1" fill="none" fill-rule="evenodd">
        <g id="About" transform="translate(-585.000000, -573.000000)" fill="#53B8D2" fill-rule="nonzero">
            <g id="Content" transform="translate(413.000000, 538.000000)">
                <g id="web-programming" transform="translate(172.000000, 35.000000)">
                    <path d="M34.3258217,55.8779374 C33.9971993,55.8779374 33.6661723,55.7648437 33.3960605,55.5346459 L24.1016547,47.614875 C23.7810474,47.3413646 23.5966981,46.941927 23.5966981,46.5200313 C23.5966981,46.0989374 23.7818489,45.6995 24.1016547,45.4259896 L33.3960605,37.5062187 C33.9996039,36.9912813 34.9061211,37.0642707 35.4206958,37.6682396 C35.9344689,38.2730104 35.8623324,39.1801667 35.2579875,39.694302 L27.2484154,46.5200313 L35.2579875,53.3457604 C35.8623324,53.860698 35.9344689,54.7678541 35.4206958,55.371823 C35.1361567,55.7062917 34.7321915,55.8779374 34.3258217,55.8779374 Z" id="Shape"></path>
                    <path d="M52.6741783,55.8779374 C52.2678085,55.8779374 51.8638433,55.7062917 51.5801057,55.371823 C51.0655311,54.7678541 51.1384691,53.860698 51.7420125,53.3457604 L59.7515846,46.5200313 L51.7420125,39.694302 C51.1384691,39.1801667 51.0655311,38.2730104 51.5801057,37.6682396 C52.0938789,37.0642707 53.0011978,36.9912813 53.6039395,37.5062187 L62.8983453,45.4259896 C63.2189526,45.6995 63.4033019,46.0989374 63.4033019,46.5200313 C63.4033019,46.941927 63.2189526,47.3413646 62.8983453,47.614875 L53.6039395,55.5346459 C53.3338277,55.7648437 53.0028007,55.8779374 52.6741783,55.8779374 Z" id="Shape"></path>
                    <path d="M40.2097675,61.8181667 C40.1111807,61.8181667 40.0117925,61.8077396 39.9116027,61.7868854 C39.135733,61.6232604 38.6387917,60.8604793 38.8023014,60.0840626 L44.5948741,32.562177 C44.7583836,31.7857604 45.5198261,31.2884687 46.2964972,31.4520937 C47.0723669,31.6157187 47.5693082,32.377698 47.4057985,33.1549167 L41.6132261,60.676802 C41.4705557,61.3537604 40.8742261,61.8181667 40.2097675,61.8181667 Z" id="Shape"></path>
                    <path d="M77.3561321,76.8123126 L9.64386792,76.8123126 C4.32659577,76.8123126 0,72.4834687 0,67.1616459 L0,9.65066667 C0,4.32964594 4.32659577,0 9.64386792,0 L77.3561321,0 C82.6734042,0 87,4.32964594 87,9.65066667 L87,67.1616459 C87,72.4834687 82.6734042,76.8123126 77.3561321,76.8123126 Z M9.64386792,2.87466667 C5.91039589,2.87466667 2.87264151,5.9145626 2.87264151,9.65066667 L2.87264151,67.1616459 C2.87264151,70.89775 5.91039589,73.9376459 9.64386792,73.9376459 L77.3561321,73.9376459 C81.0896041,73.9376459 84.1273585,70.89775 84.1273585,67.1616459 L84.1273585,9.65066667 C84.1273585,5.9145626 81.0896041,2.87466667 77.3561321,2.87466667 L9.64386792,2.87466667 Z" id="Shape"></path>
                    <path d="M85.5636792,23.0157813 L1.43632075,23.0157813 C0.642817557,23.0157813 0,22.3725104 0,21.578448 C0,20.7851874 0.642817557,20.1411146 1.43632075,20.1411146 L85.5636792,20.1411146 C86.3571824,20.1411146 87,20.7851874 87,21.578448 C87,22.3725104 86.3571824,23.0157813 85.5636792,23.0157813 Z" id="Shape"></path>
                    <path d="M24.5408865,16.1379167 C22.0353405,16.1379167 19.9954765,14.0966146 19.9954765,11.589302 C19.9954765,9.0811874 22.0353405,7.0406874 24.5408865,7.0406874 C27.0472343,7.0406874 29.0862968,9.0811874 29.0862968,11.589302 C29.0862968,14.0966146 27.0472343,16.1379167 24.5408865,16.1379167 Z M24.5408865,9.91535406 C23.6191406,9.91535406 22.868118,10.6661041 22.868118,11.589302 C22.868118,12.5125 23.6191406,13.26325 24.5408865,13.26325 C25.4634341,13.26325 26.2136552,12.5125 26.2136552,11.589302 C26.2136552,10.6661041 25.4634341,9.91535406 24.5408865,9.91535406 Z" id="Shape"></path>
                    <path d="M10.5752321,16.093802 C8.06888456,16.093802 6.02982206,14.053302 6.02982206,11.5451874 C6.02982206,9.03707297 8.06888456,6.99657297 10.5752321,6.99657297 C13.0815798,6.99657297 15.1206423,9.03707297 15.1206423,11.5451874 C15.1206423,14.053302 13.0815798,16.093802 10.5752321,16.093802 Z M10.5752321,9.87123963 C9.65348614,9.87123963 8.90246357,10.6227917 8.90246357,11.5451874 C8.90246357,12.4683854 9.65348614,13.2191354 10.5752321,13.2191354 C11.4977797,13.2191354 12.2480008,12.4683854 12.2480008,11.5451874 C12.2480008,10.6227917 11.4977797,9.87123963 10.5752321,9.87123963 Z" id="Shape"></path>
                    <path d="M38.506541,16.1812293 C36.000995,16.1812293 33.9619325,14.1407293 33.9619325,11.6326146 C33.9619325,9.12530203 36.000995,7.08480203 38.506541,7.08480203 C41.0128887,7.08480203 43.0519512,9.12530203 43.0519512,11.6326146 C43.0519512,14.1407293 41.0128887,16.1812293 38.506541,16.1812293 Z M38.506541,9.95866667 C37.5847951,9.95866667 36.834574,10.7094167 36.834574,11.6326146 C36.834574,12.5558126 37.5847951,13.3065626 38.506541,13.3065626 C39.4290886,13.3065626 40.1793097,12.5558126 40.1793097,11.6326146 C40.1793097,10.7094167 39.4290886,9.95866667 38.506541,9.95866667 Z" id="Shape"></path>
                </g>
            </g>
        </g>
    </g>
</svg>