<?xml version="1.0" encoding="UTF-8"?>
<svg width="86px" height="54px" viewBox="0 0 86 54" version="1.1" xmlns="http://www.w3.org/2000/svg" xmlns:xlink="http://www.w3.org/1999/xlink">
    <!-- Generator: Sketch 51.2 (57519) - http://www.bohemiancoding.com/sketch -->
    <title>SeagullWingUp</title>
    <desc>Created with Sketch.</desc>
    <defs>
        <linearGradient x1="100%" y1="50%" x2="0%" y2="50%" id="linearGradient-1">
            <stop stop-color="#FFC100" offset="0%"></stop>
            <stop stop-color="#FFE200" offset="100%"></stop>
        </linearGradient>
    </defs>
    <g id="Page-1" stroke="none" stroke-width="1" fill="none" fill-rule="evenodd">
        <g id="HomePage" transform="translate(-173.000000, -426.000000)">
            <g id="SeagullWingUp" transform="translate(214.282358, 454.839942) rotate(-10.000000) translate(-214.282358, -454.839942) translate(171.782358, 429.339942)">
                <g id="front-wing" transform="translate(20.148257, 5.086120)">
                    <path d="M19.1740743,14.0752065 C17.9161754,15.6806803 17.0684532,17.2998881 16.6309079,18.9328297 C16.3787162,19.8740218 16.2260355,21.2055844 16.1728659,22.9275176 C16.1338213,24.1920032 16.1959938,26.5623786 16.3593833,30.0386438 L5.66461667,27.1729898 C6.09760061,23.4660186 6.57588835,20.6354979 7.0994799,18.6814276 C7.46584205,17.3141454 8.90258365,14.6272147 9.68976022,11.9568658 C9.86053345,11.3775497 9.97497529,10.4932564 10.0330857,9.30398613 C10.0402333,9.15756684 10.1475195,9.03975427 10.2854558,9.01355765 L10.0517134,8.85866274 C13.724431,6.87765696 16.3309451,5.60566652 17.8712558,5.04269142 C19.2495965,4.53891546 21.5537533,4.12281332 24.783726,3.79438502 L24.7837328,3.79445177 C25.1254988,3.75970051 25.4307263,4.00858513 25.4654776,4.35035114 C25.4782811,4.4762691 25.4523672,4.60309661 25.3911958,4.71389971 L20.9111305,12.8288912 C20.5346396,13.5108501 19.8851871,13.9466157 19.1740743,14.0752065 Z" id="Combined-Shape-Copy" fill="#EDEDED" transform="translate(15.566643, 16.914929) rotate(-27.000000) translate(-15.566643, -16.914929) "></path>
                    <path d="M17.2237087,1.47932455 C17.4138652,1.3544511 17.6086384,1.2277507 17.8080282,1.09922335 L17.8080646,1.09927974 C18.0968036,0.913157621 18.4817546,0.996345036 18.6678767,1.28508403 C18.7364503,1.39146508 18.7709393,1.5162339 18.7667388,1.64273141 L18.4646521,10.7399607 C18.457372,10.9591985 18.4219432,11.1708684 18.3619515,11.371615 C17.802782,13.8180012 17.7292064,16.0103916 18.1412249,17.9487862 C18.3438128,18.9018871 18.8122901,20.1576337 19.5466569,21.7160259 C20.0859324,22.8604167 21.2174564,24.944211 22.9412289,27.9674086 L12.1111424,30.2694146 C12.0737303,30.1684819 12.0366829,30.0681818 12,29.9685141 L21.4144612,27.9674086 C19.6906886,24.944211 18.5591647,22.8604167 18.0198892,21.7160259 C17.2855224,20.1576337 16.817045,18.9018871 16.6144572,17.9487862 C16.1887166,15.945834 16.2874279,13.7007322 16.9105912,11.2134808 L16.8762494,11.2158682 C16.911423,11.0623552 16.9324619,10.9032572 16.9378844,10.7399607 L17.239971,1.64273141 C17.2418061,1.58746956 17.2362573,1.53253763 17.2237087,1.47932455 Z" id="Combined-Shape" fill="#7C7C7C"></path>
                </g>
                <g id="tail" transform="translate(58.000000, 27.000000)">
                    <path d="M11.7521757,0.183673893 L22.9657131,17.5825254 C23.7316425,18.7709365 23.3891534,20.3552425 22.2007423,21.1211719 C21.8641982,21.3380742 21.4814698,21.4730136 21.0833075,21.5151484 L7.32905074,22.9706678 C5.92305244,23.1194551 4.66264972,22.1002841 4.51386249,20.6942858 C4.47266594,20.3049898 4.52129854,19.9114312 4.65602055,19.5438737 L11.7521757,0.183673893 Z" id="Triangle-4" fill="#EDEDED" transform="translate(13.936930, 11.584383) scale(1, -1) rotate(-79.000000) translate(-13.936930, -11.584383) "></path>
                    <path d="M20.9742949,0.54410257 L21.0242669,0.513922387 C21.3593651,0.311542318 21.7364134,0.188708712 22.1264176,0.154867183 C23.5349737,0.0326436525 24.7759158,1.07542224 24.8981394,2.48397834 L26.0937978,16.2632569 C26.1284101,16.6621435 26.068978,17.0635877 25.9202765,17.4353355 C25.4924148,18.5049723 24.4240203,19.1269655 23.3328367,19.0365718 L21.3622012,0.515386611 L20.9742949,0.54410257 Z" id="Combined-Shape" fill="#7C7C7C"></path>
                </g>
                <path d="M35.463672,48.36176 C42.8288147,48.36176 52.3187616,47.6807396 57.5073389,45.7511816 C64.4347662,43.1749701 72.3811427,40.1675766 72.3811427,37.6618533 C72.3811427,35.0444015 67.0923362,34.7248304 59.6181349,32.4294881 C54.5780337,30.8816629 48.8488027,26.7684337 41.9221261,26.7684337 C38.577485,26.7684337 36.0780257,27.7624801 33.058285,28.0111758 C20.5501357,29.0413051 11.4631095,34.1316383 11.4631095,37.6618533 C11.4631095,39.9424654 16.7258064,42.2601969 20.9164487,44.4258257 C24.7786587,46.421728 27.215106,48.36176 35.463672,48.36176 Z" id="Oval-12" fill="#EDEDED"></path>
                <polygon id="Triangle-3" fill="url(#linearGradient-1)" transform="translate(3.594552, 32.984808) rotate(1.000000) translate(-3.594552, -32.984808) " points="3.59455187 29.5966078 8.08324905 36.3730077 -0.894145318 36.3730077"></polygon>
                <path d="M20.5714913,40.7453442 C27.6544598,40.7453442 29.4178982,38.6043531 29.4178982,31.782789 C29.4178982,24.9612248 23.6760177,20 16.5930491,20 C9.51008056,20 3.76820004,24.9612248 3.76820004,31.782789 C3.76820004,38.6043531 13.4885227,40.7453442 20.5714913,40.7453442 Z" id="Combined-Shape" fill="#EDEDED"></path>
                <ellipse id="Oval-11" fill="#000000" cx="11.4631095" cy="29.9443102" rx="2.56496982" ry="2.47645"></ellipse>
                <g id="wing" transform="translate(40.059641, 0.000000)">
                    <path d="M13.9058995,13.8812757 C14.2014369,15.7201035 14.2046892,17.1788602 13.9156563,18.2575457 C13.6137784,19.3841694 13.4388095,20.9801616 13.3907496,23.0455223 C13.3554572,24.5622007 13.4565007,27.4067156 13.6938801,31.5790671 L0.45443441,28.0315683 C0.951332921,23.5885261 1.51315638,20.1974765 2.13990479,17.8584196 C2.57844681,16.2217585 4.32561734,13.0127871 5.27061751,9.81706493 C5.48985438,9.0756681 5.88225821,7.86981484 6.44782899,6.19950515 L6.44772823,6.19947103 C6.47290096,6.12512799 6.51943165,6.06217381 6.57927334,6.01673867 L6.53102892,5.95411834 C10.5970452,3.65840624 13.5619409,2.18360249 15.4257161,1.52970709 C17.0684586,0.953359777 19.8064975,0.498948142 23.6398325,0.166472185 C24.0624025,0.129817778 24.4346747,0.442667419 24.4713254,0.865237722 C24.4866531,1.04196007 24.4403338,1.2185397 24.340235,1.36498409 L16.6932178,12.5525597 C16.0480025,13.4965088 14.969416,13.9675137 13.9058995,13.8812757 Z" id="Combined-Shape" fill="#EDEDED"></path>
                    <path d="M23.0431258,0.227433628 C23.3109907,0.202454127 23.5845617,0.17810988 23.863839,0.154400886 L23.863842,0.154435843 C24.2864572,0.11855831 24.6581389,0.432071094 24.6940164,0.854686245 C24.7067469,1.00464284 24.6751366,1.15503495 24.6031129,1.28717741 L19.4496588,10.7422635 C19.2837085,11.046734 19.073734,11.3119267 18.8319445,11.5342466 L18.8345858,11.5353408 C18.8227836,11.5448526 18.8110016,11.5543669 18.7992397,11.5638839 C18.7336915,11.6224254 18.6658982,11.6778768 18.5960948,11.7301691 C16.1136525,13.7860519 14.5649619,15.9614848 13.9500231,18.2564677 C13.6481452,19.3830914 13.4731763,20.9790836 13.4251163,23.0444443 C13.389824,24.5611227 13.4908675,27.4056377 13.7282469,31.5779891 L11.3834847,30.949712 C11.1714623,27.1194114 11.0821953,24.4846815 11.1156839,23.0455223 C11.1637438,20.9801616 11.3387127,19.3841694 11.6405906,18.2575457 C11.9594364,17.0675971 12.5599829,15.889665 15.6682179,11.6433047 C15.6992076,11.6009676 16.5159532,10.7373032 16.8548112,10.2708099 C17.0281062,10.032241 17.168026,9.7526705 17.2745707,9.43209847 C17.4804761,9.08817474 19.3838139,6.05749837 22.984584,0.340069345 C23.0073215,0.303966069 23.0268594,0.266280343 23.0431258,0.227433628 Z" id="Combined-Shape" fill="#7C7C7C"></path>
                </g>
            </g>
        </g>
    </g>
</svg>