<?xml version="1.0" encoding="UTF-8"?>
<svg viewBox="0 0 85 54" version="1.1" xmlns="http://www.w3.org/2000/svg" xmlns:xlink="http://www.w3.org/1999/xlink">
    <!-- Generator: Sketch 51.2 (57519) - http://www.bohemiancoding.com/sketch -->
    <title>SeagullWingDown</title>
    <desc>Created with Sketch.</desc>
    <defs>
        <linearGradient x1="100%" y1="50%" x2="0%" y2="50%" id="linearGradient-1">
            <stop stop-color="#FFC100" offset="0%"></stop>
            <stop stop-color="#FFE200" offset="100%"></stop>
        </linearGradient>
    </defs>
    <g id="Page-1" stroke="none" stroke-width="1" fill="none" fill-rule="evenodd">
        <g id="HomePage" transform="translate(-172.000000, -360.000000)">
            <g id="SeagullWingDown" transform="translate(209.529649, 379.820214) rotate(-20.000000) translate(-209.529649, -379.820214) translate(165.029649, 348.320214)">
                <g id="front-wing" transform="translate(42.250025, 27.609433) rotate(52.000000) translate(-42.250025, -27.609433) translate(23.750025, 6.609433)">
                    <path d="M22.2693527,15.8165325 L23.0314214,16.1789648 C21.1324635,18.8214674 19.8353457,21.4401242 19.1400682,24.0349353 C18.8092217,25.2696712 18.545844,26.9996265 18.349935,29.2248014 C18.2060711,30.8588378 18.0721369,33.9107556 17.9481323,38.3805546 L7.46023235,35.5703303 C8.20141126,30.7536066 8.91544667,27.063487 9.60233859,24.4999714 C10.0829636,22.7062544 11.7462897,19.1219557 12.7568295,15.6128311 C12.9784601,14.8432132 13.1681656,13.6763752 13.3259459,12.1123173 L13.3259144,12.1123141 C13.3420258,11.9526034 13.4571677,11.8268119 13.6043066,11.7896876 L13.3763653,11.5871156 C16.2046398,9.2728235 18.5482022,7.66546794 20.4070524,6.76504894 C22.0640875,5.96238833 26.1706002,4.77338025 29.905116,3.86586468 C29.9290508,3.86004833 29.9602836,4.21704032 29.9988143,4.93684065 L22.6302551,15.3937888 C22.5213091,15.5483974 22.4002816,15.6894379 22.2693527,15.8165325 Z" id="Combined-Shape-Copy" fill="#EDEDED" transform="translate(18.729523, 21.123175) rotate(-27.000000) translate(-18.729523, -21.123175) "></path>
                    <path d="M20.0817341,1.34199817 C20.3782175,1.06007564 20.6825974,0.772731753 20.9942462,0.480439586 C21.1518993,0.332578446 21.3995675,0.340516365 21.5474286,0.498169425 C21.624496,0.580340458 21.6624153,0.691736866 21.6514865,0.803861856 L21.6514522,0.803858519 L20.3700234,13.9506841 C20.3557401,14.0972238 20.3310296,14.2402313 20.296698,14.3790438 C19.7462646,17.899945 19.7426325,20.9381007 20.2858017,23.493511 C20.5515737,24.7438698 21.1022857,26.4048423 21.9379378,28.4764284 C22.5515912,29.9976784 23.8177965,32.7777619 25.736554,36.8166789 L15.1159515,39.0741576 C15.0830983,38.9745396 15.0504708,38.8753924 15.018069,38.7767159 L24.2393182,36.8166789 C22.3205607,32.7777619 21.0543554,29.9976784 20.440702,28.4764284 C19.6050499,26.4048423 19.0543379,24.7438698 18.7885659,23.493511 C18.23367,20.8829309 18.1973903,17.9816864 18.6797269,14.7897775 C18.7849307,14.5326136 18.8555052,14.2562347 18.8851414,13.9657816 L20.1468306,1.60044306 C20.1561742,1.50886987 20.1328237,1.4174475 20.0817341,1.34199817 Z" id="Combined-Shape" fill="#7C7C7C"></path>
                </g>
                <g id="tail" transform="translate(54.772242, 37.203561)">
                    <path d="M14.9408093,-2.70079397 L26.3334053,20.9463777 C27.0653653,22.4656786 26.4270993,24.2906862 24.9077983,25.0226461 C24.6245055,25.1591293 24.3218306,25.2510346 24.0104791,25.2951114 L11.1956371,27.1092593 C9.52585771,27.3456436 7.98060676,26.1836472 7.74422251,24.5138678 C7.68580177,24.1011933 7.71248139,23.6809277 7.82261824,23.2789537 L14.9408093,-2.70079397 Z" id="Triangle-4" fill="#EDEDED" transform="translate(17.172780, 12.219749) scale(1, -1) rotate(-79.000000) translate(-17.172780, -12.219749) "></path>
                    <path d="M26.85683,0.958945773 C27.0773911,0.896245046 27.3048826,0.858425163 27.5350609,0.846594052 C29.219266,0.760026325 30.654761,2.05516731 30.7413288,3.7393724 L31.405699,16.6649254 C31.4218406,16.9789667 31.389377,17.293617 31.3094562,17.5977471 C30.9632149,18.9153325 29.8070948,19.8046513 28.515695,19.8718715 L26.85683,0.958945773 Z" id="Combined-Shape" fill="#7C7C7C"></path>
                </g>
                <path d="M35.9654191,62.5706971 C43.1880994,62.5706971 52.4944843,61.6772766 57.5827,59.1459184 C64.3761315,55.766225 72.1688029,51.8208703 72.1688029,48.5336495 C72.1688029,45.0998536 66.9822966,44.680613 59.6526673,41.6693878 C54.7100558,39.638819 49.0916441,34.2427351 42.2989487,34.2427351 C39.0190023,34.2427351 36.5678895,35.5468097 33.606559,35.8730699 C21.3403522,37.2244812 12.4290945,43.9024131 12.4290945,48.5336495 C12.4290945,50.6117981 20.4444776,56.5395207 21.6995798,57.4072037 C25.4870838,60.0255981 27.8764034,62.5706971 35.9654191,62.5706971 Z" id="Oval-12" fill="#EDEDED"></path>
                <polygon id="Triangle-3" fill="url(#linearGradient-1)" transform="translate(5.130240, 42.553774) rotate(10.000000) translate(-5.130240, -42.553774) " points="5.13024017 38.1088456 9.53211342 46.9987034 0.728366915 46.9987034"></polygon>
                <path d="M21.3612947,52.578835 C28.3072589,52.578835 30.0365875,50.0105838 30.0365875,41.8276956 C30.0365875,33.6448075 24.405771,27.6935113 17.4598068,27.6935113 C10.5138426,27.6935113 4.88302604,33.6448075 4.88302604,41.8276956 C4.88302604,50.0105838 14.4153305,52.578835 21.3612947,52.578835 Z" id="Combined-Shape" fill="#EDEDED"></path>
                <ellipse id="Oval-11" fill="#000000" cx="12.4290945" cy="37.7531775" rx="2.51535614" ry="2.59287519"></ellipse>
                <g id="wing" transform="translate(58.531033, 33.859147) rotate(46.000000) translate(-58.531033, -33.859147) translate(44.531033, 12.859147)">
                    <path d="M18.4616113,15.0807547 L18.796713,15.2414197 C16.8991323,18.5058465 15.5342122,21.6910775 14.7019526,24.7971126 C14.3059234,26.2751134 13.9982974,28.3479484 13.7790745,31.0156175 C13.6180902,32.9745956 13.4838756,36.6347909 13.3764307,41.9962033 L0.393072769,38.5173231 C1.25929991,32.7459982 2.10352442,28.3260489 2.92574628,25.2574751 C3.50106301,23.1103639 5.51892988,18.8270852 6.73124685,14.6273194 C6.99595055,13.7103203 7.21754236,12.3206518 7.39602228,10.458314 L7.39592473,10.4583046 C7.40795326,10.3327936 7.46955007,10.2239843 7.55949382,10.149386 L7.55662731,10.1470248 C14.6156122,6.14481228 19.2674476,3.61460175 21.5121335,2.55639321 C22.9626667,1.87257073 24.3472265,1.36804127 25.6658127,1.04280484 L25.6658197,1.04283353 C26.1570108,0.921678599 26.6534153,1.22165213 26.7745702,1.71284317 C26.8344491,1.95560659 26.7924902,2.21229653 26.6584283,2.4233581 L19.0991851,14.3243268 C18.9171297,14.6109474 18.7018725,14.8636997 18.4616113,15.0807547 Z" id="Combined-Shape" fill="#EDEDED"></path>
                    <path d="M13.7003282,32.1454585 L11.4128191,32.1454585 C11.4383245,31.7209448 11.4645837,31.3443311 11.4915967,31.0156175 C11.7108196,28.3479484 12.0184456,26.2751134 12.4144747,24.7971126 C13.2252071,21.7714183 14.7574114,18.2171545 17.0110878,14.1343212 C17.8649819,12.7541681 18.5944779,11.5647968 19.1995756,10.5662072 L20.0376149,9.2468319 C20.1622394,9.05062812 20.2681999,8.84560052 20.3552414,8.63431451 C20.436396,8.49613759 20.5128544,8.36516292 20.5846166,8.24139049 C23.0367393,4.01207315 24.5171057,1.45979489 25.8908101,0.812191661 C26.2928546,0.622656517 26.7724246,0.794929339 26.9619597,1.19697378 C27.0770831,1.44117493 27.0620941,1.72683088 26.9220459,1.95764265 L26.9220281,1.95763188 L19.1458738,14.7734136 C19.0746677,14.8907673 18.9971068,15.0037281 18.9136417,15.1118397 C16.9318019,18.4862677 15.527916,21.714692 14.7019839,24.7971126 C14.3059547,26.2751134 13.9983287,28.3479484 13.7791058,31.0156175 C13.7520929,31.3443311 13.7258337,31.7209448 13.7003282,32.1454585 Z" id="Combined-Shape" fill="#7C7C7C"></path>
                </g>
            </g>
        </g>
    </g>
</svg>