<?xml version="1.0" encoding="UTF-8"?>
<svg width="1186px" height="240px" viewBox="0 0 1186 240" version="1.1" xmlns="http://www.w3.org/2000/svg" xmlns:xlink="http://www.w3.org/1999/xlink">
    <!-- Generator: Sketch 51.2 (57519) - http://www.bohemiancoding.com/sketch -->
    <title>Sky</title>
    <desc>Created with Sketch.</desc>
    <defs>
        <linearGradient x1="50%" y1="0%" x2="50%" y2="100%" id="linearGradient-1">
            <stop stop-color="#FFFFFF" offset="0%"></stop>
            <stop stop-color="#FFFFFF" stop-opacity="0.85" offset="100%"></stop>
        </linearGradient>
        <linearGradient x1="50%" y1="0%" x2="50%" y2="100%" id="linearGradient-2">
            <stop stop-color="#FFFFFF" stop-opacity="0.8" offset="0%"></stop>
            <stop stop-color="#FFFFFF" stop-opacity="0.85" offset="100%"></stop>
        </linearGradient>
        <linearGradient x1="50%" y1="0%" x2="50%" y2="100%" id="linearGradient-3">
            <stop stop-color="#FFCA09" offset="0%"></stop>
            <stop stop-color="#FFE437" stop-opacity="0.45459692" offset="100%"></stop>
        </linearGradient>
    </defs>
    <g id="Page-1" stroke="none" stroke-width="1" fill="none" fill-rule="evenodd">
        <g id="HomePage" transform="translate(-199.000000, -112.000000)">
            <g id="Sky" transform="translate(199.000000, 112.000000)">
                <path d="M1149.09581,169.570091 C1142.01279,154.46221 1126.67558,144 1108.89655,144 C1084.95906,144 1065.44802,162.965509 1064.54957,186.700193 C1052.25651,189.18141 1043,200.048543 1043,213.084112 C1043,227.949347 1055.03814,240 1069.89798,240 L1118.64744,240 L1150.80714,240 C1170.24362,240 1186,224.238005 1186,204.785047 C1186,185.336365 1170.24499,169.570093 1150.80714,169.570093 L1149.09581,169.570093 L1149.09581,169.570091 Z" id="Cloud-6" fill="url(#linearGradient-1)"></path>
                <path d="M883.095806,103.570091 C876.012786,88.4622099 860.675581,78 842.896552,78 C818.959063,78 799.448024,96.9655093 798.549572,120.700193 C786.256506,123.18141 777,134.048543 777,147.084112 C777,161.949347 789.038142,174 803.89798,174 L852.647443,174 L884.807135,174 C904.243618,174 920,158.238005 920,138.785047 C920,119.336365 904.244995,103.570093 884.807135,103.570093 L883.095807,103.570093 L883.095806,103.570091 Z" id="Cloud-6-Copy-2" fill="url(#linearGradient-1)"></path>
                <path d="M149.708594,145.499997 C141.783536,128.661005 124.623028,117 104.730408,117 C77.9472035,117 56.1166706,138.138641 55.1114089,164.592924 C41.3569295,167.358447 31,179.470772 31,194 C31,210.568542 44.4692496,224 61.0956417,224 L115.640495,224 L151.623368,224 C173.370481,224 191,206.431943 191,184.75 C191,163.072824 173.372022,145.5 151.623368,145.5 L149.708595,145.5 L149.708594,145.499997 Z" id="Cloud-5" fill="url(#linearGradient-2)"></path>
                <path d="M118.708594,119.499997 C110.783536,102.661005 93.6230276,91 73.7304075,91 C46.9472035,91 25.1166706,112.138641 24.1114089,138.592924 C10.3569295,141.358447 0,153.470772 0,168 C0,184.568542 13.4692496,198 30.0956417,198 L84.6404952,198 L120.623368,198 C142.370481,198 160,180.431943 160,158.75 C160,137.072824 142.372022,119.5 120.623368,119.5 L118.708595,119.5 L118.708594,119.499997 Z" id="Cloud-4" fill="url(#linearGradient-1)"></path>
                <g id="sun" transform="translate(968.000000, 0.000000)" fill="url(#linearGradient-3)">
                    <circle id="Sun-2" cx="75" cy="78" r="48"></circle>
                    <path d="M75.2416678,0 L75.7583322,0 C77.1424314,0 78.2591362,1.11600348 78.2591362,2.49266353 L78.2591362,21.0073365 C78.2591362,22.3823556 77.1394881,23.5 75.7583322,23.5 L75.2416678,23.5 C73.8575686,23.5 72.7408638,22.3839965 72.7408638,21.0073365 L72.7408638,2.49266353 C72.7408638,1.11764444 73.8605119,0 75.2416678,0 Z M121.828711,15.0922065 L122.246701,15.3958942 C123.366461,16.2094473 123.613924,17.7686957 122.804743,18.882437 L111.922091,33.8611221 C111.113876,34.9735359 109.551126,35.2196166 108.433748,34.4077935 L108.015757,34.1041058 C106.895998,33.2905527 106.648535,31.7313043 107.457715,30.617563 L118.340367,15.6388779 C119.148583,14.5264641 120.711332,14.2803834 121.828711,15.0922065 Z M150.306048,53.8733618 L150.465707,54.3647388 C150.893417,55.6810954 150.177115,57.0880088 148.867834,57.5134202 L131.259333,63.2347688 C129.951612,63.659673 128.542679,62.9401955 128.115878,61.6266382 L127.95622,61.1352612 C127.52851,59.8189046 128.244812,58.4119912 129.554093,57.9865798 L147.162594,52.2652312 C148.470315,51.840327 149.879248,52.5598045 150.306048,53.8733618 Z M150.465707,102.635261 L150.306048,103.126638 C149.878338,104.442995 148.471875,105.16018 147.162594,104.734769 L129.554093,99.0134202 C128.246372,98.5885159 127.52942,97.1782962 127.95622,95.8647388 L128.115878,95.3733618 C128.543589,94.0570052 129.950052,93.3398199 131.259333,93.7652312 L148.867834,99.4865798 C150.175554,99.9114841 150.892507,101.321704 150.465707,102.635261 Z M122.246701,142.104106 L121.828711,142.407794 C120.708951,143.221347 119.149547,142.974863 118.340367,141.861122 L107.457715,126.882437 C106.649499,125.770023 106.898379,124.207717 108.015757,123.395894 L108.433748,123.092206 C109.553507,122.278653 111.112911,122.525137 111.922091,123.638878 L122.804743,138.617563 C123.612959,139.729977 123.36408,141.292283 122.246701,142.104106 Z M75.7583322,157.5 L75.2416678,157.5 C73.8575686,157.5 72.7408638,156.383997 72.7408638,155.007336 L72.7408638,136.492664 C72.7408638,135.117644 73.8605119,134 75.2416678,134 L75.7583322,134 C77.1424314,134 78.2591362,135.116003 78.2591362,136.492664 L78.2591362,155.007336 C78.2591362,156.382356 77.1394881,157.5 75.7583322,157.5 Z M29.1712892,142.407794 L28.7532989,142.104106 C27.6335391,141.290553 27.3860763,139.731304 28.1952568,138.617563 L39.0779085,123.638878 C39.8861245,122.526464 41.4488737,122.280383 42.5662523,123.092206 L42.9842426,123.395894 C44.1040024,124.209447 44.3514652,125.768696 43.5422847,126.882437 L32.659633,141.861122 C31.8514171,142.973536 30.2886678,143.219617 29.1712892,142.407794 Z M0.693951522,103.126638 L0.534293435,102.635261 C0.106583249,101.318905 0.822884878,99.9119912 2.13216639,99.4865798 L19.7406667,93.7652312 C21.0483876,93.340327 22.4573209,94.0598045 22.8841216,95.3733618 L23.0437797,95.8647388 C23.4714898,97.1810954 22.7551882,98.5880088 21.4459067,99.0134202 L3.83740635,104.734769 C2.52968548,105.159673 1.12075217,104.440196 0.693951522,103.126638 Z M0.534293435,54.3647388 L0.693951522,53.8733618 C1.12166171,52.5570052 2.52812484,51.8398199 3.83740635,52.2652312 L21.4459067,57.9865798 C22.7536276,58.4114841 23.4705803,59.8217038 23.0437797,61.1352612 L22.8841216,61.6266382 C22.4564114,62.9429948 21.0499483,63.6601801 19.7406667,63.2347688 L2.13216639,57.5134202 C0.824445522,57.0885159 0.107492786,55.6782962 0.534293435,54.3647388 Z M28.7532989,15.3958942 L29.1712892,15.0922065 C30.291049,14.2786533 31.8504525,14.5251365 32.659633,15.6388779 L43.5422847,30.617563 C44.3505006,31.7299768 44.1016212,33.2922827 42.9842426,34.1041058 L42.5662523,34.4077935 C41.4464925,35.2213467 39.887089,34.9748635 39.0779085,33.8611221 L28.1952568,18.882437 C27.3870409,17.7700232 27.6359203,16.2077173 28.7532989,15.3958942 Z" id="Rectangle-5" opacity="0.799999952"></path>
                </g>
            </g>
        </g>
    </g>
</svg>