<?xml version="1.0" encoding="UTF-8"?>
<svg width="1014px" height="249px" viewBox="0 0 1014 249" version="1.1" xmlns="http://www.w3.org/2000/svg" xmlns:xlink="http://www.w3.org/1999/xlink">
    <!-- Generator: Sketch 51.2 (57519) - http://www.bohemiancoding.com/sketch -->
    <title>Skyline Copy</title>
    <desc>Created with Sketch.</desc>
    <defs></defs>
    <g id="Page-1" stroke="none" stroke-width="1" fill="none" fill-rule="evenodd" opacity="0.5">
        <g id="About" transform="translate(-413.000000, -57.000000)">
            <g id="Skyline-Copy" style="mix-blend-mode: screen;" transform="translate(413.000000, 57.000000)">
                <rect id="Rectangle-20" fill-opacity="0.431357563" fill="#D8D8D8" x="791.483333" y="14.1076487" width="83.0916667" height="227.838527"></rect>
                <rect id="Rectangle-20-Copy-3" fill-opacity="0.431357563" fill="#D8D8D8" x="696.420833" y="107.21813" width="83.0916667" height="134.728045"></rect>
                <rect id="Rectangle-20-Copy-2" fill-opacity="0.594004755" fill="#D8D8D8" x="842.8875" y="112.155807" width="70.4166667" height="134.728045"></rect>
                <g id="Sydney-Tower" transform="translate(756.979167, 34.563739)">
                    <rect id="Rectangle-12-Copy-2" fill="#D8D8D8" x="20.4208333" y="0" width="2.81666667" height="14.1076487"></rect>
                    <rect id="Rectangle-12-Copy" fill="#D8D8D8" x="17.6041667" y="65.6005666" width="8.45" height="143.898017"></rect>
                    <rect id="Rectangle-11" fill="#D8D8D8" x="9.15416667" y="11.9915014" width="25.35" height="14.1076487"></rect>
                    <polygon id="Rectangle-11-Copy" fill="#D8D8D8" points="0 26.0991501 43.6583333 26.0991501 35.9125 65.6005666 8.22670707 65.6005666"></polygon>
                    <path d="M40.5663602,33.1529745 L3.15278038,33.1529745 L2.1125,28.2152975 L41.5458333,28.2152975 L40.5663602,33.1529745 Z" id="Combined-Shape" fill="#E9E9E9"></path>
                    <path d="M38.5588038,39.5014164 L5.15382177,39.5014164 L4.225,35.2691218 L39.4333333,35.2691218 L38.5588038,39.5014164 Z" id="Combined-Shape-Copy-2" fill="#E9E9E9"></path>
                    <path d="M37.2379234,45.1444759 L7.17343959,45.1444759 L6.3375,41.6175637 L38.025,41.6175637 L37.2379234,45.1444759 Z" id="Combined-Shape-Copy-3" fill="#E9E9E9"></path>
                    <path d="M35.8995524,50.7875354 L8.50746718,50.7875354 L7.74583333,47.2606232 L36.6166667,47.2606232 L35.8995524,50.7875354 Z" id="Combined-Shape-Copy-4" fill="#E9E9E9"></path>
                    <path d="M34.5611815,56.4305949 L9.84149477,56.4305949 L9.15416667,52.9036827 L35.2083333,52.9036827 L34.5611815,56.4305949 Z" id="Combined-Shape-Copy-5" fill="#E9E9E9"></path>
                    <path d="M33.2228105,62.0736544 L11.1755224,62.0736544 L10.5625,58.5467422 L33.8,58.5467422 L33.2228105,62.0736544 Z" id="Combined-Shape-Copy-6" fill="#E9E9E9"></path>
                </g>
                <g id="Harbour-Bridge" transform="translate(273.216667, 86.056657)" fill="#727272">
                    <rect id="Rectangle-10" x="326.733333" y="150.246459" width="66.8958333" height="12.6968839"></rect>
                    <rect id="Rectangle-10-Copy" x="0" y="150.246459" width="66.8958333" height="12.6968839"></rect>
                    <rect id="Rectangle-9" x="187.308333" y="31.7422096" width="7.04166667" height="85.3512748"></rect>
                    <rect id="Rectangle-9-Copy" x="201.391667" y="32.4475921" width="7.04166667" height="85.3512748"></rect>
                    <rect id="Rectangle-9-Copy-7" x="173.225" y="32.4475921" width="7.04166667" height="85.3512748"></rect>
                    <rect id="Rectangle-9-Copy-2" x="215.475" y="35.2691218" width="7.04166667" height="81.8243626"></rect>
                    <rect id="Rectangle-9-Copy-8" x="159.141667" y="35.9745042" width="7.04166667" height="81.8243626"></rect>
                    <rect id="Rectangle-9-Copy-3" x="229.558333" y="38.796034" width="7.04166667" height="78.2974504"></rect>
                    <rect id="Rectangle-9-Copy-9" x="145.058333" y="42.3229462" width="7.04166667" height="75.4759207"></rect>
                    <rect id="Rectangle-9-Copy-4" x="243.641667" y="44.4390935" width="7.04166667" height="72.6543909"></rect>
                    <rect id="Rectangle-9-Copy-10" x="130.270833" y="50.082153" width="7.04166667" height="67.0113314"></rect>
                    <rect id="Rectangle-9-Copy-5" x="259.133333" y="52.9036827" width="7.04166667" height="64.1898017"></rect>
                    <rect id="Rectangle-9-Copy-11" x="114.779167" y="62.0736544" width="7.04166667" height="55.7252125"></rect>
                    <rect id="Rectangle-9-Copy-6" x="274.625" y="64.8951841" width="7.04166667" height="52.9036827"></rect>
                    <rect id="Rectangle-9-Copy-22" x="293.6375" y="81.1189802" width="7.04166667" height="38.0906516"></rect>
                    <rect id="Rectangle-9-Copy-12" x="99.2875" y="79.0028329" width="7.04166667" height="38.0906516"></rect>
                    <rect id="Rectangle-9-Copy-13" x="71.1208333" y="63.4844193" width="7.04166667" height="54.3144476"></rect>
                    <rect id="Rectangle-9-Copy-23" x="312.65" y="61.368272" width="7.04166667" height="56.4305949"></rect>
                    <rect id="Rectangle-9-Copy-15" x="99.2875" y="31.7422096" width="7.04166667" height="46.5552408"></rect>
                    <rect id="Rectangle-9-Copy-17" x="130.270833" y="13.4022663" width="7.04166667" height="35.2691218"></rect>
                    <rect id="Rectangle-9-Copy-19" x="159.141667" y="4.93767705" width="7.04166667" height="31.0368272"></rect>
                    <rect id="Rectangle-9-Copy-21" x="187.308333" y="0.705382436" width="7.04166667" height="31.0368272"></rect>
                    <rect id="Rectangle-9-Copy-24" x="215.475" y="2.11614731" width="7.04166667" height="31.0368272"></rect>
                    <rect id="Rectangle-9-Copy-25" x="243.641667" y="9.87535411" width="7.04166667" height="35.2691218"></rect>
                    <rect id="Rectangle-9-Copy-26" x="274.625" y="22.572238" width="7.04166667" height="46.5552408"></rect>
                    <rect id="Rectangle-9-Copy-27" x="293.6375" y="37.3852691" width="7.04166667" height="52.9036827"></rect>
                    <rect id="Rectangle-9-Copy-14" transform="translate(88.832416, 70.645845) rotate(-45.000000) translate(-88.832416, -70.645845) " x="85.3115825" y="54.0693577" width="7.04166667" height="33.1529745"></rect>
                    <rect id="Rectangle-9-Copy-16" transform="translate(118.407416, 41.019783) rotate(-45.000000) translate(-118.407416, -41.019783) " x="114.886583" y="24.4432954" width="7.04166667" height="33.1529745"></rect>
                    <rect id="Rectangle-9-Copy-18" transform="translate(151.545964, 24.133393) rotate(-45.000000) translate(-151.545964, -24.133393) " x="148.025131" y="6.49883189" width="7.04166667" height="35.2691218"></rect>
                    <rect id="Rectangle-9-Copy-20" transform="translate(177.859456, 16.633959) rotate(-45.000000) translate(-177.859456, -16.633959) " x="174.338622" y="-0.370414845" width="7.04166667" height="34.0087469"></rect>
                    <rect id="Rectangle-9-Copy-28" transform="translate(204.617789, 15.223194) rotate(45.000000) translate(-204.617789, -15.223194) " x="201.096956" y="-1.78117972" width="7.04166667" height="34.0087469"></rect>
                    <rect id="Rectangle-9-Copy-29" transform="translate(233.488622, 20.160871) rotate(45.000000) translate(-233.488622, -20.160871) " x="229.967789" y="3.15649734" width="7.04166667" height="34.0087469"></rect>
                    <rect id="Rectangle-9-Copy-30" transform="translate(262.359456, 32.857755) rotate(45.000000) translate(-262.359456, -32.857755) " x="258.838622" y="15.8533812" width="7.04166667" height="34.0087469"></rect>
                    <rect id="Rectangle-9-Copy-31" transform="translate(286.939623, 52.798439) rotate(32.000000) translate(-286.939623, -52.798439) " x="283.41879" y="35.1638779" width="7.04166667" height="35.2691218"></rect>
                    <rect id="Rectangle-9-Copy-32" transform="translate(306.630741, 75.156308) rotate(32.000000) translate(-306.630741, -75.156308) " x="303.109907" y="56.1109825" width="7.04166667" height="38.0906516"></rect>
                    <path d="M76.2421817,122.036341 C94.2255982,69.8763219 141.107775,27.5150948 196.110417,27.5150948 C251.113059,27.5150948 297.995235,69.8763219 315.978652,122.036341 L308.24418,122.036341 C291.803014,73.6148995 247.766114,33.7902697 196.023292,33.7902697 C144.280469,33.7902697 100.243569,73.6148995 83.8024027,122.036341 L76.2421817,122.036341 Z" id="Combined-Shape"></path>
                    <path d="M55.6291667,122.736544 C55.6291667,44.8221514 118.682398,0 196.4625,0 C274.242602,0 337.295833,44.8221514 337.295833,122.736544 L55.6291667,122.736544 Z M65.0270675,117.093484 L327.705794,117.093484 C327.705794,45.8958499 268.903158,4.93767705 196.366431,4.93767705 C123.829703,4.93767705 65.0270675,45.8958499 65.0270675,117.093484 Z" id="Combined-Shape"></path>
                    <rect id="Rectangle-6-Copy" x="337.295833" y="64.8951841" width="45.0666667" height="85.3512748"></rect>
                    <rect id="Rectangle-6" x="10.5625" y="64.8951841" width="45.0666667" height="85.3512748"></rect>
                </g>
                <g id="Skyscrapper-1" transform="translate(673.887500, 23.277620)" fill="#D8D8D8">
                    <rect id="Rectangle-12" x="32.3916667" y="0" width="5.63333333" height="26.0991501"></rect>
                    <rect id="Rectangle-11-Copy-2" x="13.3791667" y="26.0991501" width="43.6583333" height="21.8668555"></rect>
                    <rect id="Rectangle" x="0" y="47.9660057" width="70.4166667" height="170.70255"></rect>
                </g>
                <g id="Opera-House" transform="translate(32.391667, 107.218130)">
                    <rect id="Rectangle-13" fill="#D8D8D8" x="0" y="119.209632" width="240.825" height="15.5184136"></rect>
                    <rect id="Rectangle-14" fill="#D8D8D8" x="14.7875" y="103.691218" width="211.25" height="15.5184136"></rect>
                    <path d="M18.3746954,37.0084421 C36.9959611,46.7208046 48.777871,53.9954266 53.7204251,58.8323081 C58.7929761,63.7964072 62.0082333,72.0224795 63.3661967,83.5105249 L43.2280725,99.0099661 L26.4749535,99.0099661 C26.4749535,99.2191136 26.4749535,94.0526332 26.4749535,83.5105249 C26.4749535,73.2379213 23.4416166,58.0128619 17.3749428,37.8353466 L17.3749404,37.8353474 C17.2629895,37.4630033 17.47408,37.0704047 17.846424,36.9584538 C18.0222942,36.9055758 18.2118653,36.9235142 18.3746954,37.0084421 Z" id="Rectangle-15-Copy-4" fill="#D8D8D8" transform="translate(40.128697, 67.626551) rotate(-16.000000) translate(-40.128697, -67.626551) "></path>
                    <path d="M19.2321943,40.1707966 C20.0373169,40.9379155 21.0353961,41.9042607 22.2264322,43.0698322 C25.9928989,46.7557713 31.0552166,55.2740388 35.933657,68.7220341 C37.0614433,71.8309099 38.5733572,77.0973856 40.4693985,84.5214614 L43.0741838,102.458682 L27.0924152,101.79151 C27.0924152,102.000657 27.0924152,96.8341768 27.0924152,86.2920686 C27.0924152,76.0646344 24.0856953,60.9282013 18.0722555,40.8827693 L18.0722572,40.8827688 C17.9605375,40.5103578 18.1718695,40.1178923 18.5442804,40.0061725 C18.7865092,39.9335062 19.0491026,39.9963472 19.2321943,40.1707966 Z" id="Rectangle-15-Copy-7" fill="#727272" transform="translate(30.558628, 71.217849) rotate(-16.000000) translate(-30.558628, -71.217849) "></path>
                    <rect id="Rectangle-16" fill="#D8D8D8" x="25.35" y="90.9943343" width="50.7" height="13.4022663"></rect>
                    <path d="M41.6215183,21.2228559 C66.7355936,34.2281622 82.6094668,43.958501 89.2431379,50.4138722 C96.0065392,56.9954867 100.293549,67.9019645 102.104167,83.1333057 L75.2533344,103.683127 L52.9158424,103.683127 C52.9158424,103.960423 52.9158424,97.110483 52.9158424,83.1333057 C52.9158424,69.4248549 48.8186054,49.0645256 40.6241316,22.0523178 L40.624194,22.0522989 C40.5113341,21.6802684 40.7214334,21.2871872 41.0934639,21.1743273 C41.2690784,21.1210525 41.4585552,21.1384656 41.6215183,21.2228559 Z" id="Rectangle-15-Copy-3" fill="#D8D8D8"></path>
                    <path d="M41.7072371,21.0928355 C42.7038465,22.0332495 43.9367187,23.2182803 45.4058536,24.6479277 C49.3198843,28.4567571 55.4685616,37.1141353 58.7792693,48.6257202 C58.9732715,49.3002808 62.6305235,62.7682441 64.1008879,69.9117261 C64.5959395,72.316839 65.1821015,76.9142263 65.8593738,83.7038883 L66.4199117,103.683127 L52.9158424,103.683127 C52.9158424,103.960423 52.9158424,97.110483 52.9158424,83.1333057 C52.9158424,69.3838208 48.7940399,48.9425752 40.5504349,21.8095688 L40.550369,21.8095888 C40.4373309,21.4375351 40.6473045,21.0442905 41.0193582,20.9312523 C41.2610356,20.8578254 41.5235279,20.9194851 41.7072371,21.0928355 Z" id="Rectangle-15-Copy-6" fill="#727272"></path>
                    <path d="M114.779167,32.4475921 C130.215628,38.9019541 140.470134,45.224725 145.542685,51.4159048 C150.615236,57.6070845 161.364965,75.4407921 177.791872,104.917028 L145.542685,104.917028 L128.289496,104.917028 C128.289496,101.581404 128.289496,93.3395808 128.289496,80.1915582 C128.289496,67.0435355 123.786053,51.1288802 114.779167,32.4475921 Z" id="Rectangle-15-Copy" fill="#D8D8D8" transform="translate(146.285519, 68.682310) scale(-1, 1) translate(-146.285519, -68.682310) "></path>
                    <path d="M156.89746,62.7740962 C169.462975,64.1385284 178.049036,66.0778224 182.655642,68.5919782 C187.395055,71.1786159 193.043492,77.538847 199.600954,87.6726715 L188.109537,106.765219 L175.999869,106.75968 C176.043916,106.913288 174.955858,103.118781 172.735697,95.37616 C170.564495,87.8042791 165.11786,77.2067955 156.395791,63.5837092 L156.39579,63.5837102 C156.238556,63.3381246 156.310179,63.0115746 156.555764,62.8543405 C156.65718,62.78941 156.777743,62.7610967 156.89746,62.7740962 Z" id="Path" fill="#D8D8D8"></path>
                    <path d="M178.884465,56.4347549 C194.628419,58.1338312 205.385574,60.5545516 211.155928,63.6969163 C217.092226,66.9296494 224.1651,74.8822414 232.374549,87.5546922 L217.965518,111.444768 L202.793631,111.44528 C202.848721,111.637402 201.487853,106.891492 198.711028,97.2075516 C195.995378,87.7369543 189.177701,74.4834541 178.257998,57.4470513 L178.258039,57.447025 C178.061355,57.1401673 178.150668,56.7319657 178.457526,56.5352813 C178.584216,56.4540777 178.734853,56.4186089 178.884465,56.4347549 Z" id="Path-Copy" fill="#D8D8D8" transform="translate(205.264583, 83.940510) scale(-1, 1) translate(-205.264583, -83.940510) "></path>
                    <path d="M65.0936542,0.65363937 C92.0415492,15.8251795 108.843245,27.4547671 115.498741,35.5424022 C119.682809,40.6268032 128.297578,53.6209704 132.251721,69.3741117 C133.881669,75.8677552 133.881669,87.3790489 132.251721,103.907993 L98.8356529,103.907993 L76.4725502,103.907993 C76.4725502,104.254662 76.4725502,95.6910254 76.4725502,78.2170814 C76.4725502,61.0078757 72.3364535,35.413387 64.0642601,1.4336151 L64.0642658,1.4336137 C63.9722992,1.05584175 64.2039903,0.675043457 64.5817622,0.5830769 C64.7551686,0.540862032 64.9381362,0.566083456 65.0936542,0.65363937 Z" id="Rectangle-15" fill="#D8D8D8"></path>
                    <path d="M65.1033966,2.17384368 C66.0446356,3.27592231 67.1911112,4.64824928 68.5428233,6.29082459 C73.2802285,12.0476312 90.9279732,44.9484831 93.207192,57.1583334 C94.0863726,61.8681324 95.1279683,69.2585391 96.3319793,79.3295534 L96.3319793,104.208542 L75.6805583,104.208542 C75.6805583,104.05334 75.6805583,95.2387675 75.6805583,77.7648235 C75.6805583,60.4400865 71.7482368,35.4504535 63.8835936,2.79592443 L63.8835401,2.7959373 C63.792494,2.41790787 64.02514,2.03764704 64.4031695,1.94660097 C64.660743,1.88456595 64.9313353,1.97238051 65.1033966,2.17384368 Z" id="Rectangle-15-Copy-5" fill="#727272"></path>
                </g>
                <g id="Skyscrapper-2" transform="translate(894.995833, 14.813031)">
                    <rect id="Rectangle-17" fill="#D8D8D8" x="0" y="8.46458924" width="36.6166667" height="218.668555"></rect>
                    <rect id="Rectangle-17-Copy" fill="#E9E9E9" x="8.45" y="19.7507082" width="33.0958333" height="196.8017"></rect>
                    <rect id="Rectangle-18" stroke="#979797" stroke-width="0.704" fill="#D8D8D8" x="8.802" y="37.0318867" width="27.4626667" height="1"></rect>
                    <rect id="Rectangle-18-Copy" stroke="#979797" stroke-width="0.704" fill="#D8D8D8" x="8.802" y="51.8449178" width="27.4626667" height="1"></rect>
                    <rect id="Rectangle-18-Copy-3" stroke="#979797" stroke-width="0.704" fill="#D8D8D8" x="8.802" y="66.657949" width="27.4626667" height="1"></rect>
                    <rect id="Rectangle-18-Copy-4" stroke="#979797" stroke-width="0.704" fill="#D8D8D8" x="8.802" y="81.4709802" width="27.4626667" height="1"></rect>
                    <rect id="Rectangle-18-Copy-5" stroke="#979797" stroke-width="0.704" fill="#D8D8D8" x="8.802" y="96.2840113" width="27.4626667" height="1"></rect>
                    <rect id="Rectangle-18-Copy-6" stroke="#979797" stroke-width="0.704" fill="#D8D8D8" x="8.802" y="111.097042" width="27.4626667" height="1"></rect>
                    <rect id="Rectangle-18-Copy-7" stroke="#979797" stroke-width="0.704" fill="#D8D8D8" x="8.802" y="125.910074" width="27.4626667" height="1"></rect>
                    <rect id="Rectangle-18-Copy-8" stroke="#979797" stroke-width="0.704" fill="#D8D8D8" x="8.802" y="140.723105" width="27.4626667" height="1"></rect>
                    <rect id="Rectangle-18-Copy-9" stroke="#979797" stroke-width="0.704" fill="#D8D8D8" x="8.802" y="155.536136" width="27.4626667" height="1"></rect>
                    <rect id="Rectangle-18-Copy-10" stroke="#979797" stroke-width="0.704" fill="#D8D8D8" x="8.802" y="170.349167" width="27.4626667" height="1"></rect>
                    <rect id="Rectangle-18-Copy-11" stroke="#979797" stroke-width="0.704" fill="#D8D8D8" x="8.802" y="185.162198" width="27.4626667" height="1"></rect>
                    <rect id="Rectangle-18-Copy-12" stroke="#979797" stroke-width="0.704" fill="#D8D8D8" x="8.802" y="199.975229" width="27.4626667" height="1"></rect>
                    <rect id="Rectangle-19-Copy" fill="#B9B5B5" x="8.45" y="0" width="28.1666667" height="8.46458924"></rect>
                </g>
                <g id="Barangaroo" transform="translate(931.612500, 0.000000)">
                    <rect id="Rectangle-19" fill="#B9B5B5" x="11.9708333" y="162.23796" width="50.7" height="5.64305949"></rect>
                    <rect id="Rectangle-19-Copy-4" fill="#B9B5B5" x="11.9708333" y="82.529745" width="50.7" height="5.64305949"></rect>
                    <g transform="translate(0.000000, 8.464589)">
                        <rect id="Rectangle-18-Copy-2" fill="#D8D8D8" x="0" y="0" width="71.825" height="74.0651558"></rect>
                        <rect id="Rectangle-23" fill="#B4B4B4" x="0" y="6.34844193" width="71.825" height="1"></rect>
                        <rect id="Rectangle-23-Copy" fill="#B4B4B4" x="0" y="15.5184136" width="71.825" height="1"></rect>
                        <rect id="Rectangle-23-Copy-2" fill="#B4B4B4" x="0" y="24.6883853" width="71.825" height="1"></rect>
                        <rect id="Rectangle-23-Copy-3" fill="#B4B4B4" x="0" y="33.8583569" width="71.825" height="1"></rect>
                        <rect id="Rectangle-23-Copy-4" fill="#B4B4B4" x="0" y="43.0283286" width="71.825" height="1"></rect>
                        <rect id="Rectangle-23-Copy-5" fill="#B4B4B4" x="0" y="52.1983003" width="71.825" height="1"></rect>
                        <rect id="Rectangle-23-Copy-6" fill="#B4B4B4" x="0" y="61.368272" width="71.825" height="1"></rect>
                        <rect id="Rectangle-23-Copy-7" fill="#B4B4B4" x="0" y="70.5382436" width="71.825" height="1"></rect>
                        <rect id="Rectangle-22" fill="#848484" x="2.81666667" y="0" width="2.1125" height="74.0651558"></rect>
                        <rect id="Rectangle-22-Copy" fill="#848484" x="7.74583333" y="0" width="2.1125" height="74.0651558"></rect>
                        <rect id="Rectangle-22-Copy-2" fill="#848484" x="12.675" y="0" width="2.1125" height="74.0651558"></rect>
                        <rect id="Rectangle-22-Copy-3" fill="#848484" x="17.6041667" y="0" width="2.1125" height="74.0651558"></rect>
                        <rect id="Rectangle-22-Copy-4" fill="#848484" x="22.5333333" y="0" width="2.1125" height="74.0651558"></rect>
                        <rect id="Rectangle-22-Copy-5" fill="#848484" x="27.4625" y="0" width="2.1125" height="74.0651558"></rect>
                        <rect id="Rectangle-22-Copy-6" fill="#848484" x="32.3916667" y="0" width="2.1125" height="74.0651558"></rect>
                        <rect id="Rectangle-22-Copy-7" fill="#848484" x="37.3208333" y="0" width="2.1125" height="74.0651558"></rect>
                        <rect id="Rectangle-22-Copy-8" fill="#848484" x="42.25" y="0" width="2.1125" height="74.0651558"></rect>
                        <rect id="Rectangle-22-Copy-9" fill="#848484" x="47.1791667" y="0" width="2.1125" height="74.0651558"></rect>
                        <rect id="Rectangle-22-Copy-10" fill="#848484" x="52.1083333" y="0" width="2.1125" height="74.0651558"></rect>
                        <rect id="Rectangle-22-Copy-11" fill="#848484" x="57.0375" y="0" width="2.1125" height="74.0651558"></rect>
                        <rect id="Rectangle-22-Copy-12" fill="#848484" x="61.9666667" y="0" width="2.1125" height="74.0651558"></rect>
                        <rect id="Rectangle-22-Copy-13" fill="#848484" x="66.8958333" y="0" width="2.1125" height="74.0651558"></rect>
                    </g>
                    <g id="Barangaroo-Copy" transform="translate(0.000000, 88.172805)">
                        <rect id="Rectangle-18-Copy-2" fill="#D8D8D8" x="0" y="0" width="71.825" height="74.0651558"></rect>
                        <rect id="Rectangle-23" fill="#B4B4B4" x="0" y="6.34844193" width="71.825" height="1"></rect>
                        <rect id="Rectangle-23-Copy" fill="#B4B4B4" x="0" y="15.5184136" width="71.825" height="1"></rect>
                        <rect id="Rectangle-23-Copy-2" fill="#B4B4B4" x="0" y="24.6883853" width="71.825" height="1"></rect>
                        <rect id="Rectangle-23-Copy-3" fill="#B4B4B4" x="0" y="33.8583569" width="71.825" height="1"></rect>
                        <rect id="Rectangle-23-Copy-4" fill="#B4B4B4" x="0" y="43.0283286" width="71.825" height="1"></rect>
                        <rect id="Rectangle-23-Copy-5" fill="#B4B4B4" x="0" y="52.1983003" width="71.825" height="1"></rect>
                        <rect id="Rectangle-23-Copy-6" fill="#B4B4B4" x="0" y="61.368272" width="71.825" height="1"></rect>
                        <rect id="Rectangle-23-Copy-7" fill="#B4B4B4" x="0" y="70.5382436" width="71.825" height="1"></rect>
                        <rect id="Rectangle-22" fill="#848484" x="2.81666667" y="0" width="2.1125" height="74.0651558"></rect>
                        <rect id="Rectangle-22-Copy" fill="#848484" x="7.74583333" y="0" width="2.1125" height="74.0651558"></rect>
                        <rect id="Rectangle-22-Copy-2" fill="#848484" x="12.675" y="0" width="2.1125" height="74.0651558"></rect>
                        <rect id="Rectangle-22-Copy-3" fill="#848484" x="17.6041667" y="0" width="2.1125" height="74.0651558"></rect>
                        <rect id="Rectangle-22-Copy-4" fill="#848484" x="22.5333333" y="0" width="2.1125" height="74.0651558"></rect>
                        <rect id="Rectangle-22-Copy-5" fill="#848484" x="27.4625" y="0" width="2.1125" height="74.0651558"></rect>
                        <rect id="Rectangle-22-Copy-6" fill="#848484" x="32.3916667" y="0" width="2.1125" height="74.0651558"></rect>
                        <rect id="Rectangle-22-Copy-7" fill="#848484" x="37.3208333" y="0" width="2.1125" height="74.0651558"></rect>
                        <rect id="Rectangle-22-Copy-8" fill="#848484" x="42.25" y="0" width="2.1125" height="74.0651558"></rect>
                        <rect id="Rectangle-22-Copy-9" fill="#848484" x="47.1791667" y="0" width="2.1125" height="74.0651558"></rect>
                        <rect id="Rectangle-22-Copy-10" fill="#848484" x="52.1083333" y="0" width="2.1125" height="74.0651558"></rect>
                        <rect id="Rectangle-22-Copy-11" fill="#848484" x="57.0375" y="0" width="2.1125" height="74.0651558"></rect>
                        <rect id="Rectangle-22-Copy-12" fill="#848484" x="61.9666667" y="0" width="2.1125" height="74.0651558"></rect>
                        <rect id="Rectangle-22-Copy-13" fill="#848484" x="66.8958333" y="0" width="2.1125" height="74.0651558"></rect>
                    </g>
                    <g id="Barangaroo-Copy-2" transform="translate(0.000000, 167.881020)">
                        <rect id="Rectangle-18-Copy-2" fill="#D8D8D8" x="0" y="0" width="71.825" height="74.0651558"></rect>
                        <rect id="Rectangle-23" fill="#B4B4B4" x="0" y="6.34844193" width="71.825" height="1"></rect>
                        <rect id="Rectangle-23-Copy" fill="#B4B4B4" x="0" y="15.5184136" width="71.825" height="1"></rect>
                        <rect id="Rectangle-23-Copy-2" fill="#B4B4B4" x="0" y="24.6883853" width="71.825" height="1"></rect>
                        <rect id="Rectangle-23-Copy-3" fill="#B4B4B4" x="0" y="33.8583569" width="71.825" height="1"></rect>
                        <rect id="Rectangle-23-Copy-4" fill="#B4B4B4" x="0" y="43.0283286" width="71.825" height="1"></rect>
                        <rect id="Rectangle-23-Copy-5" fill="#B4B4B4" x="0" y="52.1983003" width="71.825" height="1"></rect>
                        <rect id="Rectangle-23-Copy-6" fill="#B4B4B4" x="0" y="61.368272" width="71.825" height="1"></rect>
                        <rect id="Rectangle-23-Copy-7" fill="#B4B4B4" x="0" y="70.5382436" width="71.825" height="1"></rect>
                        <rect id="Rectangle-22" fill="#848484" x="2.81666667" y="0" width="2.1125" height="74.0651558"></rect>
                        <rect id="Rectangle-22-Copy" fill="#848484" x="7.74583333" y="0" width="2.1125" height="74.0651558"></rect>
                        <rect id="Rectangle-22-Copy-2" fill="#848484" x="12.675" y="0" width="2.1125" height="74.0651558"></rect>
                        <rect id="Rectangle-22-Copy-3" fill="#848484" x="17.6041667" y="0" width="2.1125" height="74.0651558"></rect>
                        <rect id="Rectangle-22-Copy-4" fill="#848484" x="22.5333333" y="0" width="2.1125" height="74.0651558"></rect>
                        <rect id="Rectangle-22-Copy-5" fill="#848484" x="27.4625" y="0" width="2.1125" height="74.0651558"></rect>
                        <rect id="Rectangle-22-Copy-6" fill="#848484" x="32.3916667" y="0" width="2.1125" height="74.0651558"></rect>
                        <rect id="Rectangle-22-Copy-7" fill="#848484" x="37.3208333" y="0" width="2.1125" height="74.0651558"></rect>
                        <rect id="Rectangle-22-Copy-8" fill="#848484" x="42.25" y="0" width="2.1125" height="74.0651558"></rect>
                        <rect id="Rectangle-22-Copy-9" fill="#848484" x="47.1791667" y="0" width="2.1125" height="74.0651558"></rect>
                        <rect id="Rectangle-22-Copy-10" fill="#848484" x="52.1083333" y="0" width="2.1125" height="74.0651558"></rect>
                        <rect id="Rectangle-22-Copy-11" fill="#848484" x="57.0375" y="0" width="2.1125" height="74.0651558"></rect>
                        <rect id="Rectangle-22-Copy-12" fill="#848484" x="61.9666667" y="0" width="2.1125" height="74.0651558"></rect>
                        <rect id="Rectangle-22-Copy-13" fill="#848484" x="66.8958333" y="0" width="2.1125" height="74.0651558"></rect>
                    </g>
                    <rect id="Rectangle-19-Copy-2" fill="#B9B5B5" x="11.9708333" y="2.82152975" width="50.7" height="5.64305949"></rect>
                    <rect id="Rectangle-19-Copy-3" fill="#B9B5B5" x="23.2375" y="0" width="28.1666667" height="4.23229462"></rect>
                </g>
                <rect id="Soil" fill="#848484" x="0" y="241.946176" width="1014" height="7.05382436"></rect>
            </g>
        </g>
    </g>
</svg>