<?xml version="1.0" encoding="UTF-8"?>
<svg viewBox="0 0 28 28" version="1.1" xmlns="http://www.w3.org/2000/svg" xmlns:xlink="http://www.w3.org/1999/xlink">
    <!-- Generator: Sketch 51.2 (57519) - http://www.bohemiancoding.com/sketch -->
    <title>Shape</title>
    <desc>Created with Sketch.</desc>
    <defs></defs>
    <g id="Page-1" stroke="none" stroke-width="1" fill="none" fill-rule="evenodd">
        <g id="About" transform="translate(-920.000000, -868.000000)" fill="#53B8D2" fill-rule="nonzero">
            <g id="Content" transform="translate(413.000000, 538.000000)">
                <path d="M521,330 C513.236364,330 507,336.236364 507,344 C507,351.763636 513.236364,358 521,358 C528.763636,358 535,351.763636 535,344 C535,336.236364 528.763636,330 521,330 Z M529.081818,339.609091 L518.9,350.172727 C518.772727,350.3 518.645455,350.363636 518.454545,350.363636 C518.263636,350.363636 518.072727,350.3 518.009091,350.172727 L513.045455,344.827273 L512.918182,344.7 C512.790909,344.572727 512.727273,344.381818 512.727273,344.254545 C512.727273,344.127273 512.790909,343.936364 512.918182,343.809091 L513.809091,342.918182 C514.063636,342.663636 514.445455,342.663636 514.7,342.918182 L514.763636,342.981818 L518.263636,346.736364 C518.390909,346.863636 518.581818,346.863636 518.709091,346.736364 L527.236364,337.890909 L527.3,337.890909 C527.554545,337.636364 527.936364,337.636364 528.190909,337.890909 L529.081818,338.781818 C529.336364,338.972727 529.336364,339.354545 529.081818,339.609091 Z" id="Shape"></path>
            </g>
        </g>
    </g>
</svg>