<?xml version="1.0" encoding="UTF-8"?>
<svg viewBox="0 0 822 106" version="1.1" xmlns="http://www.w3.org/2000/svg" xmlns:xlink="http://www.w3.org/1999/xlink">
    <!-- Generator: Sketch 51.2 (57519) - http://www.bohemiancoding.com/sketch -->
    <title>Waves</title>
    <desc>Created with Sketch.</desc>
    <defs></defs>
    <g id="Page-1" stroke="none" stroke-width="1" fill="none" fill-rule="evenodd">
        <g id="HomePage" transform="translate(-248.000000, -859.000000)">
            <g id="Ocean" transform="translate(-3.000000, 755.000000)">
                <g id="Waves" transform="translate(251.000000, 104.000000)">
                    <g transform="translate(0.000000, 31.000000)" fill="#B6EAF7">
                        <path d="M8.12683254e-14,0 L3.00714765,0 C3.51777252,6.71244771 9.12602826,12 15.969258,12 C22.8124878,12 28.4207435,6.71244771 28.9313684,6.06015238e-13 L31.938516,0 C31.4223196,8.37072972 24.4699633,15 15.969258,15 C7.46855269,15 0.516196399,8.37072972 2.06779038e-14,1.60427227e-14 Z" id="Combined-Shape"></path>
                        <path d="M29,0 L32.0071476,0 C32.5177725,6.71244771 38.1260283,12 44.969258,12 C51.8124878,12 57.4207435,6.71244771 57.9313684,6.06015238e-13 L60.938516,0 C60.4223196,8.37072972 53.4699633,15 44.969258,15 C36.4685527,15 29.5161964,8.37072972 29,1.60427227e-14 Z" id="Combined-Shape-Copy-8"></path>
                        <path d="M58,0 L61.0071476,0 C61.5177725,6.71244771 67.1260283,12 73.969258,12 C80.8124878,12 86.4207435,6.71244771 86.9313684,6.06015238e-13 L89.938516,0 C89.4223196,8.37072972 82.4699633,15 73.969258,15 C65.4685527,15 58.5161964,8.37072972 58,1.60427227e-14 Z" id="Combined-Shape-Copy-9"></path>
                        <path d="M87,0 L90.0071476,0 C90.5177725,6.71244771 96.1260283,12 102.969258,12 C109.812488,12 115.420744,6.71244771 115.931368,6.06015238e-13 L118.938516,0 C118.42232,8.37072972 111.469963,15 102.969258,15 C94.4685527,15 87.5161964,8.37072972 87,1.60427227e-14 Z" id="Combined-Shape-Copy-10"></path>
                    </g>
                    <g transform="translate(485.000000, 91.000000)" fill="#B6EAF7">
                        <path d="M8.12683254e-14,0 L3.00714765,0 C3.51777252,6.71244771 9.12602826,12 15.969258,12 C22.8124878,12 28.4207435,6.71244771 28.9313684,6.06015238e-13 L31.938516,0 C31.4223196,8.37072972 24.4699633,15 15.969258,15 C7.46855269,15 0.516196399,8.37072972 2.06779038e-14,1.60427227e-14 Z" id="Combined-Shape"></path>
                        <path d="M29,0 L32.0071476,0 C32.5177725,6.71244771 38.1260283,12 44.969258,12 C51.8124878,12 57.4207435,6.71244771 57.9313684,6.06015238e-13 L60.938516,0 C60.4223196,8.37072972 53.4699633,15 44.969258,15 C36.4685527,15 29.5161964,8.37072972 29,1.60427227e-14 Z" id="Combined-Shape-Copy-8"></path>
                        <path d="M58,0 L61.0071476,0 C61.5177725,6.71244771 67.1260283,12 73.969258,12 C80.8124878,12 86.4207435,6.71244771 86.9313684,6.06015238e-13 L89.938516,0 C89.4223196,8.37072972 82.4699633,15 73.969258,15 C65.4685527,15 58.5161964,8.37072972 58,1.60427227e-14 Z" id="Combined-Shape-Copy-9"></path>
                        <path d="M87,0 L90.0071476,0 C90.5177725,6.71244771 96.1260283,12 102.969258,12 C109.812488,12 115.420744,6.71244771 115.931368,6.06015238e-13 L118.938516,0 C118.42232,8.37072972 111.469963,15 102.969258,15 C94.4685527,15 87.5161964,8.37072972 87,1.60427227e-14 Z" id="Combined-Shape-Copy-10"></path>
                    </g>
                    <g id="Waves-Copy" transform="translate(268.000000, 0.000000)" fill="#DBF5FC">
                        <path d="M8.12683254e-14,0 L3.00714765,0 C3.51777252,6.71244771 9.12602826,12 15.969258,12 C22.8124878,12 28.4207435,6.71244771 28.9313684,6.06015238e-13 L31.938516,0 C31.4223196,8.37072972 24.4699633,15 15.969258,15 C7.46855269,15 0.516196399,8.37072972 2.06779038e-14,1.60427227e-14 Z" id="Combined-Shape"></path>
                        <path d="M29,0 L32.0071476,0 C32.5177725,6.71244771 38.1260283,12 44.969258,12 C51.8124878,12 57.4207435,6.71244771 57.9313684,6.06015238e-13 L60.938516,0 C60.4223196,8.37072972 53.4699633,15 44.969258,15 C36.4685527,15 29.5161964,8.37072972 29,1.60427227e-14 Z" id="Combined-Shape-Copy-8"></path>
                        <path d="M58,0 L61.0071476,0 C61.5177725,6.71244771 67.1260283,12 73.969258,12 C80.8124878,12 86.4207435,6.71244771 86.9313684,6.06015238e-13 L89.938516,0 C89.4223196,8.37072972 82.4699633,15 73.969258,15 C65.4685527,15 58.5161964,8.37072972 58,1.60427227e-14 Z" id="Combined-Shape-Copy-9"></path>
                        <path d="M87,0 L90.0071476,0 C90.5177725,6.71244771 96.1260283,12 102.969258,12 C109.812488,12 115.420744,6.71244771 115.931368,6.06015238e-13 L118.938516,0 C118.42232,8.37072972 111.469963,15 102.969258,15 C94.4685527,15 87.5161964,8.37072972 87,1.60427227e-14 Z" id="Combined-Shape-Copy-10"></path>
                    </g>
                    <g transform="translate(761.000000, 0.000000)" fill="#DCF6FC">
                        <path d="M8.12683254e-14,0 L3.00714765,0 C3.51777252,6.71244771 9.12602826,12 15.969258,12 C22.8124878,12 28.4207435,6.71244771 28.9313684,6.06015238e-13 L31.938516,0 C31.4223196,8.37072972 24.4699633,15 15.969258,15 C7.46855269,15 0.516196399,8.37072972 2.06779038e-14,1.60427227e-14 Z" id="Combined-Shape-Copy-9"></path>
                        <path d="M29,0 L32.0071476,0 C32.5177725,6.71244771 38.1260283,12 44.969258,12 C51.8124878,12 57.4207435,6.71244771 57.9313684,6.06015238e-13 L60.938516,0 C60.4223196,8.37072972 53.4699633,15 44.969258,15 C36.4685527,15 29.5161964,8.37072972 29,1.60427227e-14 Z" id="Combined-Shape-Copy-10"></path>
                    </g>
                </g>
            </g>
        </g>
    </g>
</svg>