<?xml version="1.0" encoding="UTF-8"?>
<svg viewBox="0 0 687 213" version="1.1" xmlns="http://www.w3.org/2000/svg" xmlns:xlink="http://www.w3.org/1999/xlink">
    <!-- Generator: Sketch 51.2 (57519) - http://www.bohemiancoding.com/sketch -->
    <title>Waves</title>
    <desc>Created with Sketch.</desc>
    <defs></defs>
    <g id="Page-1" stroke="none" stroke-width="1" fill="none" fill-rule="evenodd">
        <g id="Desktop-HD" transform="translate(-293.000000, -793.000000)">
            <g id="Waves" transform="translate(293.000000, 793.000000)">
                <g transform="translate(99.000000, 89.000000)">
                    <g fill="#B6EAF7">
                        <path d="M1.37490019e-12,0 L2.22377305,0 C2.601378,6.71244771 6.74865956,12 11.8091992,12 C16.8697389,12 21.0170204,6.71244771 21.3946254,6.06015238e-13 L23.6183984,0 C23.2366733,8.37072972 18.0954351,15 11.8091992,15 C5.52296333,15 0.381725068,8.37072972 1.38086591e-12,1.29174449e-13 Z" id="Combined-Shape"></path>
                        <path d="M21.4453782,0 L23.6691512,0 C24.0467561,6.71244771 28.1940377,12 33.2545774,12 C38.315117,12 42.4623986,6.71244771 42.8400035,6.06015238e-13 L45.0637766,0 C44.6820515,8.37072972 39.5408132,15 33.2545774,15 C26.9683415,15 21.8271032,8.37072972 21.4453782,1.29174449e-13 Z" id="Combined-Shape-Copy-8"></path>
                        <path d="M42.8907563,0 L45.1145294,0 C45.4921343,6.71244771 49.6394159,12 54.6999555,12 C59.7604952,12 63.9077767,6.71244771 64.2853817,6.05793193e-13 L66.5091547,0 C66.1274296,8.37072972 60.9861914,15 54.6999555,15 C48.4137196,15 43.2724814,8.37072972 42.8907563,1.29174449e-13 Z" id="Combined-Shape-Copy-9"></path>
                        <path d="M64.3361345,0 L66.5599075,0 C66.9375124,6.71244771 71.084794,12 76.1453337,12 C81.2058733,12 85.3531549,6.71244771 85.7307598,6.05793193e-13 L87.9545329,0 C87.5728078,8.37072972 82.4315695,15 76.1453337,15 C69.8590978,15 64.7178595,8.37072972 64.3361345,1.29174449e-13 Z" id="Combined-Shape-Copy-10"></path>
                    </g>
                    <g id="Waves-Copy" transform="translate(291.000000, 17.000000)" fill="#DBF5FC">
                        <path d="M2.22044605e-15,0 L2.22377305,0 C2.601378,6.71244771 6.74865956,12 11.8091992,12 C16.8697389,12 21.0170204,6.71244771 21.3946254,6.05793193e-13 L23.6183984,0 C23.2366733,8.37072972 18.0954351,15 11.8091992,15 C5.52296333,15 0.381725068,8.37072972 2.12347501e-14,1.52322599e-13 Z" id="Combined-Shape"></path>
                        <path d="M21.4453782,0 L23.6691512,0 C24.0467561,6.71244771 28.1940377,12 33.2545774,12 C38.315117,12 42.4623986,6.71244771 42.8400035,6.05793193e-13 L45.0637766,0 C44.6820515,8.37072972 39.5408132,15 33.2545774,15 C26.9683415,15 21.8271032,8.37072972 21.4453782,1.29174449e-13 Z" id="Combined-Shape-Copy-8"></path>
                        <path d="M42.8907563,0 L45.1145294,0 C45.4921343,6.71244771 49.6394159,12 54.6999555,12 C59.7604952,12 63.9077767,6.71244771 64.2853817,6.06015238e-13 L66.5091547,0 C66.1274296,8.37072972 60.9861914,15 54.6999555,15 C48.4137196,15 43.2724814,8.37072972 42.8907563,1.52322599e-13 Z" id="Combined-Shape-Copy-9"></path>
                        <path d="M64.3361345,0 L66.5599075,0 C66.9375124,6.71244771 71.084794,12 76.1453337,12 C81.2058733,12 85.3531549,6.71244771 85.7307598,6.06015238e-13 L87.9545329,0 C87.5728078,8.37072972 82.4315695,15 76.1453337,15 C69.8590978,15 64.7178595,8.37072972 64.3361345,1.29174449e-13 Z" id="Combined-Shape-Copy-10"></path>
                    </g>
                    <g transform="translate(542.000000, 17.000000)" fill="#DCF6FC">
                        <path d="M-4.4408921e-16,0 L2.26768511,0 C2.65274649,6.71244771 6.88192295,12 12.0423913,12 C17.2028596,12 21.4320361,6.71244771 21.8170975,6.06015238e-13 L24.0847826,0 C23.6955197,8.37072972 18.4527592,15 12.0423913,15 C5.63202334,15 0.389262858,8.37072972 2.14116919e-14,1.52322599e-13 Z" id="Combined-Shape-Copy-9"></path>
                        <path d="M21.8688525,0 L24.1365376,0 C24.5215989,6.71244771 28.7507754,12 33.9112437,12 C39.0717121,12 43.3008886,6.71244771 43.6859499,6.06015238e-13 L45.953635,0 C45.5643722,8.37072972 40.3216117,15 33.9112437,15 C27.5008758,15 22.2581153,8.37072972 21.8688525,1.52322599e-13 Z" id="Combined-Shape-Copy-10"></path>
                    </g>
                    <g id="Waves-Copy-2" transform="translate(102.000000, 109.000000)" fill="#DCF6FC">
                        <path d="M-4.4408921e-16,0 L2.26768511,0 C2.65274649,6.71244771 6.88192295,12 12.0423913,12 C17.2028596,12 21.4320361,6.71244771 21.8170975,6.06015238e-13 L24.0847826,0 C23.6955197,8.37072972 18.4527592,15 12.0423913,15 C5.63202334,15 0.389262858,8.37072972 2.14116919e-14,1.52322599e-13 Z" id="Combined-Shape-Copy-9"></path>
                        <path d="M21.8688525,0 L24.1365376,0 C24.5215989,6.71244771 28.7507754,12 33.9112437,12 C39.0717121,12 43.3008886,6.71244771 43.6859499,6.06015238e-13 L45.953635,0 C45.5643722,8.37072972 40.3216117,15 33.9112437,15 C27.5008758,15 22.2581153,8.37072972 21.8688525,1.52322599e-13 Z" id="Combined-Shape-Copy-10"></path>
                    </g>
                </g>
                <g id="Waves-Copy-3" transform="translate(293.500000, 23.000000) scale(-1, 1) translate(-293.500000, -23.000000) ">
                    <g id="Waves" transform="translate(0.000000, 31.000000)" fill="#B6EAF7">
                        <path d="M1.15463195e-14,0 L2.22377305,0 C2.601378,6.71244771 6.74865956,12 11.8091992,12 C16.8697389,12 21.0170204,6.71244771 21.3946254,6.05793193e-13 L23.6183984,0 C23.2366733,8.37072972 18.0954351,15 11.8091992,15 C5.52296333,15 0.381725068,8.37072972 2.0174834e-14,1.29174449e-13 Z" id="Combined-Shape"></path>
                        <path d="M21.4453782,0 L23.6691512,0 C24.0467561,6.71244771 28.1940377,12 33.2545774,12 C38.315117,12 42.4623986,6.71244771 42.8400035,6.05793193e-13 L45.0637766,0 C44.6820515,8.37072972 39.5408132,15 33.2545774,15 C26.9683415,15 21.8271032,8.37072972 21.4453782,1.52322599e-13 Z" id="Combined-Shape-Copy-8"></path>
                        <path d="M42.8907563,0 L45.1145294,0 C45.4921343,6.71244771 49.6394159,12 54.6999555,12 C59.7604952,12 63.9077767,6.71244771 64.2853817,6.05793193e-13 L66.5091547,0 C66.1274296,8.37072972 60.9861914,15 54.6999555,15 C48.4137196,15 43.2724814,8.37072972 42.8907563,1.29174449e-13 Z" id="Combined-Shape-Copy-9"></path>
                        <path d="M64.3361345,0 L66.5599075,0 C66.9375124,6.71244771 71.084794,12 76.1453337,12 C81.2058733,12 85.3531549,6.71244771 85.7307598,6.05793193e-13 L87.9545329,0 C87.5728078,8.37072972 82.4315695,15 76.1453337,15 C69.8590978,15 64.7178595,8.37072972 64.3361345,1.29174449e-13 Z" id="Combined-Shape-Copy-10"></path>
                    </g>
                    <g id="Waves-Copy" transform="translate(200.000000, 0.000000)" fill="#DBF5FC">
                        <path d="M2.22044605e-15,0 L2.22377305,0 C2.601378,6.71244771 6.74865956,12 11.8091992,12 C16.8697389,12 21.0170204,6.71244771 21.3946254,6.05793193e-13 L23.6183984,0 C23.2366733,8.37072972 18.0954351,15 11.8091992,15 C5.52296333,15 0.381725068,8.37072972 2.12347501e-14,1.52322599e-13 Z" id="Combined-Shape"></path>
                        <path d="M21.4453782,0 L23.6691512,0 C24.0467561,6.71244771 28.1940377,12 33.2545774,12 C38.315117,12 42.4623986,6.71244771 42.8400035,6.05793193e-13 L45.0637766,0 C44.6820515,8.37072972 39.5408132,15 33.2545774,15 C26.9683415,15 21.8271032,8.37072972 21.4453782,1.29174449e-13 Z" id="Combined-Shape-Copy-8"></path>
                        <path d="M42.8907563,0 L45.1145294,0 C45.4921343,6.71244771 49.6394159,12 54.6999555,12 C59.7604952,12 63.9077767,6.71244771 64.2853817,6.06015238e-13 L66.5091547,0 C66.1274296,8.37072972 60.9861914,15 54.6999555,15 C48.4137196,15 43.2724814,8.37072972 42.8907563,1.52322599e-13 Z" id="Combined-Shape-Copy-9"></path>
                        <path d="M64.3361345,0 L66.5599075,0 C66.9375124,6.71244771 71.084794,12 76.1453337,12 C81.2058733,12 85.3531549,6.71244771 85.7307598,6.06015238e-13 L87.9545329,0 C87.5728078,8.37072972 82.4315695,15 76.1453337,15 C69.8590978,15 64.7178595,8.37072972 64.3361345,1.29174449e-13 Z" id="Combined-Shape-Copy-10"></path>
                    </g>
                    <g id="Waves" transform="translate(541.000000, 11.000000)" fill="#DCF6FC">
                        <path d="M-4.4408921e-16,0 L2.26768511,0 C2.65274649,6.71244771 6.88192295,12 12.0423913,12 C17.2028596,12 21.4320361,6.71244771 21.8170975,6.06015238e-13 L24.0847826,0 C23.6955197,8.37072972 18.4527592,15 12.0423913,15 C5.63202334,15 0.389262858,8.37072972 2.14116919e-14,1.52322599e-13 Z" id="Combined-Shape-Copy-9"></path>
                        <path d="M21.8688525,0 L24.1365376,0 C24.5215989,6.71244771 28.7507754,12 33.9112437,12 C39.0717121,12 43.3008886,6.71244771 43.6859499,6.06015238e-13 L45.953635,0 C45.5643722,8.37072972 40.3216117,15 33.9112437,15 C27.5008758,15 22.2581153,8.37072972 21.8688525,1.52322599e-13 Z" id="Combined-Shape-Copy-10"></path>
                    </g>
                </g>
            </g>
        </g>
    </g>
</svg>